<?xml version="1.0" encoding="UTF-8" standalone="no"?>
<!DOCTYPE svg PUBLIC "-//W3C//DTD SVG 1.1//EN"
 "http://www.w3.org/Graphics/SVG/1.1/DTD/svg11.dtd">
<!-- Generated by graphviz version 2.38.0 (20140413.2041)
 -->
<!-- Title: automa Pages: 1 -->
<svg width="402pt" height="360pt"
 viewBox="0.00 0.00 402.06 360.00" xmlns="http://www.w3.org/2000/svg" xmlns:xlink="http://www.w3.org/1999/xlink">
<g id="graph0" class="graph" transform="scale(0.824002 0.824002) rotate(0) translate(4 432.892)">
<title>automa</title>
<polygon fill="white" stroke="none" points="-4,4 -4,-432.892 483.931,-432.892 483.931,4 -4,4"/>
<!-- START -->
<g id="node1" class="node"><title>START</title>
<ellipse fill="none" stroke="black" cx="42.3466" cy="-166.295" rx="38.2082" ry="38.2082"/>
<ellipse fill="none" stroke="black" cx="42.3466" cy="-166.295" rx="42.1937" ry="42.1937"/>
<text text-anchor="middle" x="42.3466" y="-162.595" font-family="Times,serif" font-size="14.00">START</text>
</g>
<!-- END -->
<g id="node2" class="node"><title>END</title>
<ellipse fill="none" stroke="black" cx="215.638" cy="-396.295" rx="28.6832" ry="28.6832"/>
<ellipse fill="none" stroke="black" cx="215.638" cy="-396.295" rx="32.6952" ry="32.6952"/>
<text text-anchor="middle" x="215.638" y="-392.595" font-family="Times,serif" font-size="14.00">END</text>
</g>
<!-- START&#45;&gt;END -->
<g id="edge1" class="edge"><title>START&#45;&gt;END</title>
<path fill="none" stroke="black" d="M61.8966,-204.109C82.7226,-244.288 119.215,-308.366 161.693,-355.295 167.124,-361.295 173.516,-367.063 179.945,-372.282"/>
<polygon fill="black" stroke="black" points="177.995,-375.2 188.038,-378.575 182.292,-369.674 177.995,-375.2"/>
<text text-anchor="middle" x="123.193" y="-335.095" font-family="Times,serif" font-size="14.00">exit</text>
</g>
<!-- login -->
<g id="node3" class="node"><title>login</title>
<ellipse fill="none" stroke="black" cx="215.638" cy="-254.295" rx="28.6953" ry="28.6953"/>
<text text-anchor="middle" x="215.638" y="-250.595" font-family="Times,serif" font-size="14.00">login</text>
</g>
<!-- START&#45;&gt;login -->
<g id="edge2" class="edge"><title>START&#45;&gt;login</title>
<path fill="none" stroke="black" d="M80.5144,-185.39C110.435,-200.761 152.127,-222.18 181.052,-237.04"/>
<polygon fill="black" stroke="black" points="179.47,-240.162 189.964,-241.619 182.669,-233.936 179.47,-240.162"/>
<text text-anchor="middle" x="123.193" y="-219.095" font-family="Times,serif" font-size="14.00">login</text>
</g>
<!-- Registration -->
<g id="node4" class="node"><title>Registration</title>
<ellipse fill="none" stroke="black" cx="215.638" cy="-105.295" rx="53.8905" ry="53.8905"/>
<text text-anchor="middle" x="215.638" y="-101.595" font-family="Times,serif" font-size="14.00">Registration</text>
</g>
<!-- START&#45;&gt;Registration -->
<g id="edge3" class="edge"><title>START&#45;&gt;Registration</title>
<path fill="none" stroke="black" d="M82.6444,-152.3C104,-144.695 130.857,-135.131 154.761,-126.618"/>
<polygon fill="black" stroke="black" points="156.205,-129.819 164.451,-123.167 153.857,-123.225 156.205,-129.819"/>
<text text-anchor="middle" x="123.193" y="-148.095" font-family="Times,serif" font-size="14.00">register</text>
</g>
<!-- login&#45;&gt;login -->
<g id="edge4" class="edge"><title>login&#45;&gt;login</title>
<path fill="none" stroke="black" d="M198.995,-277.791C196.434,-289.941 201.982,-300.892 215.638,-300.892 225.24,-300.892 230.834,-295.478 232.419,-288.04"/>
<polygon fill="black" stroke="black" points="235.915,-287.744 232.282,-277.791 228.916,-287.837 235.915,-287.744"/>
<text text-anchor="middle" x="215.638" y="-334.692" font-family="Times,serif" font-size="14.00"> &#160;&#160;&#160;&#160;&#160;&#160;&#160;&#160;&#160;&#160;&#160;&#160;&#160;&#160;/Server connection failed/</text>
<text text-anchor="middle" x="215.638" y="-319.692" font-family="Times,serif" font-size="14.00">/Invalid credentials/</text>
<text text-anchor="middle" x="215.638" y="-304.692" font-family="Times,serif" font-size="14.00">/Account already in use/</text>
</g>
<!-- chat -->
<g id="node5" class="node"><title>chat</title>
<ellipse fill="none" stroke="black" cx="420.931" cy="-105.295" rx="25.1964" ry="25.1964"/>
<text text-anchor="middle" x="420.931" y="-101.595" font-family="Times,serif" font-size="14.00">chat</text>
</g>
<!-- login&#45;&gt;chat -->
<g id="edge5" class="edge"><title>login&#45;&gt;chat</title>
<path fill="none" stroke="black" d="M239.359,-238.089C248.738,-231.373 259.705,-223.486 269.584,-216.295 312.319,-185.186 361.552,-148.717 391.705,-126.309"/>
<polygon fill="black" stroke="black" points="394.115,-128.879 400.052,-120.104 389.938,-123.261 394.115,-128.879"/>
<text text-anchor="middle" x="332.584" y="-205.095" font-family="Times,serif" font-size="14.00">valid credentials</text>
</g>
<!-- Registration&#45;&gt;Registration -->
<g id="edge8" class="edge"><title>Registration&#45;&gt;Registration</title>
<path fill="none" stroke="black" d="M198.768,-156.708C200.222,-168.545 205.845,-177.24 215.638,-177.24 222.371,-177.24 227.133,-173.13 229.924,-166.715"/>
<polygon fill="black" stroke="black" points="233.397,-167.265 232.508,-156.708 226.619,-165.515 233.397,-167.265"/>
<text text-anchor="middle" x="215.638" y="-196.04" font-family="Times,serif" font-size="14.00">/Server connection failed/</text>
<text text-anchor="middle" x="215.638" y="-181.04" font-family="Times,serif" font-size="14.00">/Account alrady exists/</text>
</g>
<!-- Registration&#45;&gt;chat -->
<g id="edge9" class="edge"><title>Registration&#45;&gt;chat</title>
<path fill="none" stroke="black" d="M269.786,-105.295C306.251,-105.295 353.593,-105.295 385.278,-105.295"/>
<polygon fill="black" stroke="black" points="385.385,-108.795 395.385,-105.295 385.385,-101.795 385.385,-108.795"/>
<text text-anchor="middle" x="332.584" y="-109.095" font-family="Times,serif" font-size="14.00">valid credentials</text>
</g>
<!-- chat&#45;&gt;START -->
<g id="edge7" class="edge"><title>chat&#45;&gt;START</title>
<path fill="none" stroke="black" d="M401.514,-88.6746C358.356,-51.8436 247.825,30.1415 161.693,-12.2949 117.079,-34.2761 84.5875,-82.0514 65.0602,-118.6"/>
<polygon fill="black" stroke="black" points="61.875,-117.139 60.3754,-127.628 68.0882,-120.364 61.875,-117.139"/>
<text text-anchor="middle" x="215.638" y="-31.0949" font-family="Times,serif" font-size="14.00">/logout/</text>
<text text-anchor="middle" x="215.638" y="-16.0949" font-family="Times,serif" font-size="14.00">/delete account/</text>
</g>
<!-- chat&#45;&gt;chat -->
<g id="edge6" class="edge"><title>chat&#45;&gt;chat</title>
<path fill="none" stroke="black" d="M405.338,-125.81C402.155,-137.635 407.353,-148.643 420.931,-148.643 430.478,-148.643 435.883,-143.2 437.144,-135.859"/>
<polygon fill="black" stroke="black" points="440.633,-135.576 436.525,-125.81 433.646,-136.006 440.633,-135.576"/>
<text text-anchor="middle" x="420.931" y="-182.443" font-family="Times,serif" font-size="14.00">/Selecting chat/</text>
<text text-anchor="middle" x="420.931" y="-167.443" font-family="Times,serif" font-size="14.00">/Sending messages/</text>
<text text-anchor="middle" x="420.931" y="-152.443" font-family="Times,serif" font-size="14.00">/Receiving messages/</text>
</g>
</g>
</svg>
