<svg version="1.1" xmlns="http://www.w3.org/2000/svg" xmlns:xlink="http://www.w3.org/1999/xlink" width="855" height="600"><defs></defs><g><g transform="translate(10,-22) scale(1,1)"><rect fill="#C0C0C0" stroke="none" x="7" y="39" width="290.8" height="15" opacity="0.2"></rect></g><g transform="translate(10,-22) scale(1,1)"><rect fill="#C0C0C0" stroke="none" x="7" y="53" width="727" height="481" opacity="0.2"></rect></g><g transform="translate(10,-22) scale(1,1)"><rect fill="#ffffff" stroke="none" x="0" y="47" width="727" height="480"></rect></g><g transform="translate(10,-22) scale(1,1)"><path fill="none" stroke="#000000" d="M 0 47 L 727 47 L 727 527 L 0 527 L 0 47 Z Z" stroke-miterlimit="10"></path></g><g transform="translate(10,-22) scale(1,1)"><rect fill="#ffffff" stroke="none" x="0" y="32" width="290.8" height="15"></rect></g><g transform="translate(10,-22) scale(1,1)"><path fill="none" stroke="#000000" d="M 0 32 L 290.8 32 L 290.8 47 L 0 47 L 0 32 Z Z" stroke-miterlimit="10"></path></g><g transform="translate(10,-22) scale(1,1)"><rect fill="#ffffff" stroke="none" x="0" y="46" width="727" height="481"></rect></g><g transform="translate(10,-22) scale(1,1)"><path fill="none" stroke="#000000" d="M 0 46 L 727 46 L 727 527 L 0 527 L 0 46 Z Z" stroke-miterlimit="10"></path></g><g transform="translate(10,-22) scale(1,1)"><g><path fill="none" stroke="none"></path><text fill="#000000" stroke="none" font-family="Arial" font-size="13px" font-style="normal" font-weight="bold" text-decoration="none" x="348" y="66.5">client</text></g></g><g transform="translate(10,-22) scale(1,1)"><rect fill="#C0C0C0" stroke="none" x="455" y="103" width="101" height="54" opacity="0.2"></rect></g><g transform="translate(10,-22) scale(1,1)"><rect fill="#ffffff" stroke="none" x="448" y="96" width="101" height="54"></rect></g><g transform="translate(10,-22) scale(1,1)"><path fill="none" stroke="#000000" d="M 448 96 L 549 96 L 549 150 L 448 150 L 448 96 Z Z" stroke-miterlimit="10"></path></g><g transform="translate(10,-22) scale(1,1)"><path fill="none" stroke="#000000" d="M 448 121 L 549 121" stroke-miterlimit="10"></path></g><g transform="translate(10,-22) scale(1,1)"><path fill="none" stroke="#000000" d="M 448 131 L 549 131" stroke-miterlimit="10"></path></g><g transform="translate(10,-22) scale(1,1)"><path fill="none" stroke="#000000" d="M 448 141 L 549 141" stroke-miterlimit="10"></path></g><g transform="translate(10,-22) scale(1,1)"><g><path fill="none" stroke="none"></path><text fill="#000000" stroke="none" font-family="Arial" font-size="13px" font-style="normal" font-weight="bold" text-decoration="none" x="457.5" y="115.5">ChatController</text></g></g><g transform="translate(10,-22) scale(1,1)"><rect fill="#C0C0C0" stroke="none" x="143" y="103" width="108" height="44" opacity="0.2"></rect></g><g transform="translate(10,-22) scale(1,1)"><rect fill="#ffffff" stroke="none" x="136" y="96" width="108" height="44"></rect></g><g transform="translate(10,-22) scale(1,1)"><path fill="none" stroke="#000000" d="M 136 96 L 244 96 L 244 140 L 136 140 L 136 96 Z Z" stroke-miterlimit="10"></path></g><g transform="translate(10,-22) scale(1,1)"><path fill="none" stroke="#000000" d="M 136 121 L 244 121" stroke-miterlimit="10"></path></g><g transform="translate(10,-22) scale(1,1)"><path fill="none" stroke="#000000" d="M 136 131 L 244 131" stroke-miterlimit="10"></path></g><g transform="translate(10,-22) scale(1,1)"><g><path fill="none" stroke="none"></path><text fill="#000000" stroke="none" font-family="Arial" font-size="13px" font-style="normal" font-weight="bold" text-decoration="none" x="147" y="115.5">LoginController</text></g></g><g transform="translate(10,-22) scale(1,1)"><rect fill="#C0C0C0" stroke="none" x="23" y="103" width="102" height="44" opacity="0.2"></rect></g><g transform="translate(10,-22) scale(1,1)"><rect fill="#ffffff" stroke="none" x="16" y="96" width="102" height="44"></rect></g><g transform="translate(10,-22) scale(1,1)"><path fill="none" stroke="#000000" d="M 16 96 L 118 96 L 118 140 L 16 140 L 16 96 Z Z" stroke-miterlimit="10"></path></g><g transform="translate(10,-22) scale(1,1)"><path fill="none" stroke="#000000" d="M 16 121 L 118 121" stroke-miterlimit="10"></path></g><g transform="translate(10,-22) scale(1,1)"><path fill="none" stroke="#000000" d="M 16 131 L 118 131" stroke-miterlimit="10"></path></g><g transform="translate(10,-22) scale(1,1)"><g><path fill="none" stroke="none"></path><text fill="#000000" stroke="none" font-family="Arial" font-size="13px" font-style="normal" font-weight="bold" text-decoration="none" x="25.5" y="115.5">StartController</text></g></g><g transform="translate(10,-22) scale(1,1)"><rect fill="#C0C0C0" stroke="none" x="287" y="103" width="148" height="44" opacity="0.2"></rect></g><g transform="translate(10,-22) scale(1,1)"><rect fill="#ffffff" stroke="none" x="280" y="96" width="148" height="44"></rect></g><g transform="translate(10,-22) scale(1,1)"><path fill="none" stroke="#000000" d="M 280 96 L 428 96 L 428 140 L 280 140 L 280 96 Z Z" stroke-miterlimit="10"></path></g><g transform="translate(10,-22) scale(1,1)"><path fill="none" stroke="#000000" d="M 280 121 L 428 121" stroke-miterlimit="10"></path></g><g transform="translate(10,-22) scale(1,1)"><path fill="none" stroke="#000000" d="M 280 131 L 428 131" stroke-miterlimit="10"></path></g><g transform="translate(10,-22) scale(1,1)"><g><path fill="none" stroke="none"></path><text fill="#000000" stroke="none" font-family="Arial" font-size="13px" font-style="normal" font-weight="bold" text-decoration="none" x="292" y="115.5">RegistrationController</text></g></g><g transform="translate(10,-22) scale(1,1)"><rect fill="#C0C0C0" stroke="none" x="583" y="119" width="127" height="71" opacity="0.2"></rect></g><g transform="translate(10,-22) scale(1,1)"><rect fill="#ffffff" stroke="none" x="576" y="112" width="127" height="71"></rect></g><g transform="translate(10,-22) scale(1,1)"><path fill="none" stroke="#000000" d="M 576 112 L 703 112 L 703 183 L 576 183 L 576 112 Z Z" stroke-miterlimit="10"></path></g><g transform="translate(10,-22) scale(1,1)"><path fill="none" stroke="#000000" d="M 576 137 L 703 137" stroke-miterlimit="10"></path></g><g transform="translate(10,-22) scale(1,1)"><path fill="none" stroke="#000000" d="M 576 147 L 703 147" stroke-miterlimit="10"></path></g><g transform="translate(10,-22) scale(1,1)"><g><path fill="none" stroke="none"></path><text fill="#000000" stroke="none" font-family="Arial" font-size="13px" font-style="normal" font-weight="bold" text-decoration="none" x="602.5" y="131.5">Conversation</text></g></g><g transform="translate(10,-22) scale(1,1)"><rect fill="#C0C0C0" stroke="none" x="575" y="239" width="119" height="103" opacity="0.2"></rect></g><g transform="translate(10,-22) scale(1,1)"><rect fill="#ffffff" stroke="none" x="568" y="232" width="119" height="103"></rect></g><g transform="translate(10,-22) scale(1,1)"><path fill="none" stroke="#000000" d="M 568 232 L 687 232 L 687 335 L 568 335 L 568 232 Z Z" stroke-miterlimit="10"></path></g><g transform="translate(10,-22) scale(1,1)"><path fill="none" stroke="#000000" d="M 568 257 L 687 257" stroke-miterlimit="10"></path></g><g transform="translate(10,-22) scale(1,1)"><path fill="none" stroke="#000000" d="M 568 267 L 687 267" stroke-miterlimit="10"></path></g><g transform="translate(10,-22) scale(1,1)"><g><path fill="none" stroke="none"></path><text fill="#000000" stroke="none" font-family="Arial" font-size="13px" font-style="normal" font-weight="bold" text-decoration="none" x="601" y="251.5">Message</text></g></g><g transform="translate(10,-22) scale(1,1)"><path fill="none" stroke="#000000" d="M 636 184 L 632 231" stroke-miterlimit="10"></path></g><g transform="translate(10,-22) scale(1,1)"><path fill="none" stroke="#000000" d="M 628.6674380009496 220.5169646322029 L 632 231 L 637.0561482077345 221.23089741575907" stroke-miterlimit="10"></path></g><g transform="translate(10,-22) scale(1,1)"><g><path fill="none" stroke="none"></path><text fill="#000000" stroke="none" font-family="Arial" font-size="13px" font-style="normal" font-weight="normal" text-decoration="none" x="610.5" y="210.5">0..*</text></g></g><g transform="translate(10,-22) scale(1,1)"><rect fill="#C0C0C0" stroke="none" x="799" y="111" width="43" height="44" opacity="0.2"></rect></g><g transform="translate(10,-22) scale(1,1)"><rect fill="#ffffff" stroke="none" x="792" y="104" width="43" height="44"></rect></g><g transform="translate(10,-22) scale(1,1)"><path fill="none" stroke="#000000" d="M 792 104 L 835 104 L 835 148 L 792 148 L 792 104 Z Z" stroke-miterlimit="10"></path></g><g transform="translate(10,-22) scale(1,1)"><path fill="none" stroke="#000000" d="M 792 129 L 835 129" stroke-miterlimit="10"></path></g><g transform="translate(10,-22) scale(1,1)"><path fill="none" stroke="#000000" d="M 792 139 L 835 139" stroke-miterlimit="10"></path></g><g transform="translate(10,-22) scale(1,1)"><g><path fill="none" stroke="none"></path><text fill="#000000" stroke="none" font-family="Arial" font-size="13px" font-style="normal" font-weight="bold" text-decoration="none" x="797.5" y="123.5">VBox</text></g></g><g transform="translate(10,-22) scale(1,1)"><rect fill="#C0C0C0" stroke="none" x="799" y="271" width="43" height="44" opacity="0.2"></rect></g><g transform="translate(10,-22) scale(1,1)"><rect fill="#ffffff" stroke="none" x="792" y="264" width="43" height="44"></rect></g><g transform="translate(10,-22) scale(1,1)"><path fill="none" stroke="#000000" d="M 792 264 L 835 264 L 835 308 L 792 308 L 792 264 Z Z" stroke-miterlimit="10"></path></g><g transform="translate(10,-22) scale(1,1)"><path fill="none" stroke="#000000" d="M 792 289 L 835 289" stroke-miterlimit="10"></path></g><g transform="translate(10,-22) scale(1,1)"><path fill="none" stroke="#000000" d="M 792 299 L 835 299" stroke-miterlimit="10"></path></g><g transform="translate(10,-22) scale(1,1)"><g><path fill="none" stroke="none"></path><text fill="#000000" stroke="none" font-family="Arial" font-size="13px" font-style="normal" font-weight="bold" text-decoration="none" x="797.5" y="283.5">HBox</text></g></g><g transform="translate(10,-22) scale(1,1)"><path fill="none" stroke="#000000" d="M 688 284 L 791 286" stroke-miterlimit="10"></path></g><g transform="translate(10,-22) scale(1,1)"><path fill="#FFFFFF" stroke="none" d="M 770.5150353118812 294.02285620751894 L 791 286 L 770.841926527843 277.18795858548543"></path></g><g transform="translate(10,-22) scale(1,1)"><path fill="none" stroke="#000000" d="M 770.5150353118812 294.02285620751894 L 791 286 L 770.841926527843 277.18795858548543 L 770.5150353118812 294.02285620751894" stroke-miterlimit="10"></path></g><g transform="translate(10,-22) scale(1,1)"><path fill="none" stroke="#000000" d="M 704 139 L 791 129" stroke-miterlimit="10"></path></g><g transform="translate(10,-22) scale(1,1)"><path fill="#FFFFFF" stroke="none" d="M 771.7689767367514 139.68493070863778 L 791 129 L 769.8462260808145 122.95700000198683"></path></g><g transform="translate(10,-22) scale(1,1)"><path fill="none" stroke="#000000" d="M 771.7689767367514 139.68493070863778 L 791 129 L 769.8462260808145 122.95700000198683 L 771.7689767367514 139.68493070863778" stroke-miterlimit="10"></path></g><g transform="translate(10,-22) scale(1,1)"><rect fill="#C0C0C0" stroke="none" x="175" y="231" width="327" height="235" opacity="0.2"></rect></g><g transform="translate(10,-22) scale(1,1)"><rect fill="#ffffff" stroke="none" x="168" y="224" width="327" height="235"></rect></g><g transform="translate(10,-22) scale(1,1)"><path fill="none" stroke="#000000" d="M 168 224 L 495 224 L 495 459 L 168 459 L 168 224 Z Z" stroke-miterlimit="10"></path></g><g transform="translate(10,-22) scale(1,1)"><path fill="none" stroke="#000000" d="M 168 249 L 495 249" stroke-miterlimit="10"></path></g><g transform="translate(10,-22) scale(1,1)"><path fill="none" stroke="#000000" d="M 168 362 L 495 362" stroke-miterlimit="10"></path></g><g transform="translate(10,-22) scale(1,1)"><g><path fill="none" stroke="none"></path><text fill="#000000" stroke="none" font-family="Arial" font-size="13px" font-style="normal" font-weight="bold" text-decoration="none" x="315" y="243.5">Client</text></g></g><g transform="translate(10,-22) scale(1,1)"><g><path fill="none" stroke="none"></path><text fill="#000000" stroke="none" font-family="Arial" font-size="13px" font-style="normal" font-weight="normal" text-decoration="none" x="173" y="266.5">-SERVER_ADDRESS: String = "127.0.0.1"</text></g></g><g transform="translate(10,-22) scale(1,1)"><g><path fill="none" stroke="none"></path><text fill="#000000" stroke="none" font-family="Arial" font-size="13px" font-style="normal" font-weight="normal" text-decoration="none" x="173" y="281.5">-PORT: int = 1723</text></g></g><g transform="translate(10,-22) scale(1,1)"><g><path fill="none" stroke="none"></path><text fill="#000000" stroke="none" font-family="Arial" font-size="13px" font-style="normal" font-weight="normal" text-decoration="none" x="173" y="296.5">-username: String</text></g></g><g transform="translate(10,-22) scale(1,1)"><g><path fill="none" stroke="none"></path><text fill="#000000" stroke="none" font-family="Arial" font-size="13px" font-style="normal" font-weight="normal" text-decoration="none" x="173" y="311.5">-in: BufferedReader</text></g></g><g transform="translate(10,-22) scale(1,1)"><g><path fill="none" stroke="none"></path><text fill="#000000" stroke="none" font-family="Arial" font-size="13px" font-style="normal" font-weight="normal" text-decoration="none" x="173" y="326.5">-out: PrintWriter</text></g></g><g transform="translate(10,-22) scale(1,1)"><g><path fill="none" stroke="none"></path><text fill="#000000" stroke="none" font-family="Arial" font-size="13px" font-style="normal" font-weight="normal" text-decoration="none" x="173" y="341.5">-socket: Socket</text></g></g><g transform="translate(10,-22) scale(1,1)"><g><path fill="none" stroke="none"></path><text fill="#000000" stroke="none" font-family="Arial" font-size="13px" font-style="normal" font-weight="normal" text-decoration="none" x="173" y="356.5">-gui: ChatController</text></g></g><g transform="translate(10,-22) scale(1,1)"><g><path fill="none" stroke="none"></path><text fill="#000000" stroke="none" font-family="Arial" font-size="13px" font-style="normal" font-weight="normal" text-decoration="none" x="173" y="379.5">~registration(String username, String password): String</text></g></g><g transform="translate(10,-22) scale(1,1)"><g><path fill="none" stroke="none"></path><text fill="#000000" stroke="none" font-family="Arial" font-size="13px" font-style="normal" font-weight="normal" text-decoration="none" x="173" y="394.5">~login(String username, String password): String</text></g></g><g transform="translate(10,-22) scale(1,1)"><g><path fill="none" stroke="none"></path><text fill="#000000" stroke="none" font-family="Arial" font-size="13px" font-style="normal" font-weight="normal" text-decoration="none" x="173" y="409.5">~getMesage(): void</text></g></g><g transform="translate(10,-22) scale(1,1)"><g><path fill="none" stroke="none"></path><text fill="#000000" stroke="none" font-family="Arial" font-size="13px" font-style="normal" font-weight="normal" text-decoration="none" x="173" y="424.5">~sendMessage(String message, String to): void</text></g></g><g transform="translate(10,-22) scale(1,1)"><g><path fill="none" stroke="none"></path><text fill="#000000" stroke="none" font-family="Arial" font-size="13px" font-style="normal" font-weight="normal" text-decoration="none" x="173" y="439.5">~disconnect(): void</text></g></g><g transform="translate(10,-22) scale(1,1)"><g><path fill="none" stroke="none"></path><text fill="#000000" stroke="none" font-family="Arial" font-size="13px" font-style="normal" font-weight="normal" text-decoration="none" x="173" y="454.5">~deleteAccount(): void</text></g></g><g transform="translate(10,-22) scale(1,1)"><rect fill="#C0C0C0" stroke="none" x="199" y="575" width="81" height="44" opacity="0.2"></rect></g><g transform="translate(10,-22) scale(1,1)"><rect fill="#ffffff" stroke="none" x="192" y="568" width="81" height="44"></rect></g><g transform="translate(10,-22) scale(1,1)"><path fill="none" stroke="#000000" d="M 192 568 L 273 568 L 273 612 L 192 612 L 192 568 Z Z" stroke-miterlimit="10"></path></g><g transform="translate(10,-22) scale(1,1)"><path fill="none" stroke="#000000" d="M 192 593 L 273 593" stroke-miterlimit="10"></path></g><g transform="translate(10,-22) scale(1,1)"><path fill="none" stroke="#000000" d="M 192 603 L 273 603" stroke-miterlimit="10"></path></g><g transform="translate(10,-22) scale(1,1)"><g><path fill="none" stroke="none"></path><text fill="#000000" stroke="none" font-family="Arial" font-size="13px" font-style="normal" font-weight="bold" text-decoration="none" x="200.5" y="587.5">Application</text></g></g><g transform="translate(10,-22) scale(1,1)"><path fill="none" stroke="#000000" d="M 284 460 L 241 567" stroke-miterlimit="10"></path></g><g transform="translate(10,-22) scale(1,1)"><path fill="#FFFFFF" stroke="none" d="M 240.7671915448751 545.001231847596 L 241 567 L 256.3908577009791 551.2799014243482"></path></g><g transform="translate(10,-22) scale(1,1)"><path fill="none" stroke="#000000" d="M 240.7671915448751 545.001231847596 L 241 567 L 256.3908577009791 551.2799014243482 L 240.7671915448751 545.001231847596" stroke-miterlimit="10"></path></g><g transform="translate(10,-22) scale(1,1)"><path fill="none" stroke="#000000" d="M 421 223 L 477 151" stroke-miterlimit="10"></path></g><g transform="translate(10,-22) scale(1,1)"><path fill="none" stroke="#000000" d="M 474.0835133377538 161.60632384707068 L 477 151 L 467.43792898816133 156.43753601960987" stroke-miterlimit="10"></path></g><g transform="translate(10,-22) scale(1,1)"><g><path fill="none" stroke="none"></path><text fill="#000000" stroke="none" font-family="Arial" font-size="13px" font-style="normal" font-weight="normal" text-decoration="none" x="469.5" y="181.5">1</text></g></g></g></svg>