<svg version="1.1" xmlns="http://www.w3.org/2000/svg" xmlns:xlink="http://www.w3.org/1999/xlink" width="780" height="580"><defs></defs><g><g transform="translate(-134,2) scale(1,1)"><rect fill="#C0C0C0" stroke="none" x="151" y="71" width="304" height="15" opacity="0.2"></rect></g><g transform="translate(-134,2) scale(1,1)"><rect fill="#C0C0C0" stroke="none" x="151" y="85" width="760" height="490" opacity="0.2"></rect></g><g transform="translate(-134,2) scale(1,1)"><rect fill="#ffffff" stroke="none" x="144" y="79" width="760" height="489"></rect></g><g transform="translate(-134,2) scale(1,1)"><path fill="none" stroke="#000000" d="M 144 79 L 904 79 L 904 568 L 144 568 L 144 79 Z Z" stroke-miterlimit="10"></path></g><g transform="translate(-134,2) scale(1,1)"><rect fill="#ffffff" stroke="none" x="144" y="64" width="304" height="15"></rect></g><g transform="translate(-134,2) scale(1,1)"><path fill="none" stroke="#000000" d="M 144 64 L 448 64 L 448 79 L 144 79 L 144 64 Z Z" stroke-miterlimit="10"></path></g><g transform="translate(-134,2) scale(1,1)"><rect fill="#ffffff" stroke="none" x="144" y="78" width="760" height="490"></rect></g><g transform="translate(-134,2) scale(1,1)"><path fill="none" stroke="#000000" d="M 144 78 L 904 78 L 904 568 L 144 568 L 144 78 Z Z" stroke-miterlimit="10"></path></g><g transform="translate(-134,2) scale(1,1)"><g><path fill="none" stroke="none"></path><text fill="#000000" stroke="none" font-family="Arial" font-size="13px" font-style="normal" font-weight="bold" text-decoration="none" x="506" y="98.5">Server</text></g></g><g transform="translate(-134,2) scale(1,1)"><rect fill="#C0C0C0" stroke="none" x="159" y="127" width="316" height="205" opacity="0.2"></rect></g><g transform="translate(-134,2) scale(1,1)"><rect fill="#ffffff" stroke="none" x="152" y="120" width="316" height="205"></rect></g><g transform="translate(-134,2) scale(1,1)"><path fill="none" stroke="#000000" d="M 152 120 L 468 120 L 468 325 L 152 325 L 152 120 Z Z" stroke-miterlimit="10"></path></g><g transform="translate(-134,2) scale(1,1)"><path fill="none" stroke="#000000" d="M 152 145 L 468 145" stroke-miterlimit="10"></path></g><g transform="translate(-134,2) scale(1,1)"><path fill="none" stroke="#000000" d="M 152 198 L 468 198" stroke-miterlimit="10"></path></g><g transform="translate(-134,2) scale(1,1)"><g><path fill="none" stroke="none"></path><text fill="#000000" stroke="none" font-family="Arial" font-size="13px" font-style="normal" font-weight="bold" text-decoration="none" x="292" y="139.5">Server</text></g></g><g transform="translate(-134,2) scale(1,1)"><g><path fill="none" stroke="none"></path><text fill="#000000" stroke="none" font-family="Arial" font-size="13px" font-style="normal" font-weight="normal" text-decoration="none" x="157" y="162.5">-PORT: int = 1723</text></g></g><g transform="translate(-134,2) scale(1,1)"><g><path fill="none" stroke="none"></path><text fill="#000000" stroke="none" font-family="Arial" font-size="13px" font-style="normal" font-weight="normal" text-decoration="none" x="157" y="177.5">-MAX_CLIENTS: int = 100</text></g></g><g transform="translate(-134,2) scale(1,1)"><g><path fill="none" stroke="none"></path><text fill="#000000" stroke="none" font-family="Arial" font-size="13px" font-style="normal" font-weight="normal" text-decoration="none" x="157" y="192.5">-onlineClients: HashMap</text></g></g><g transform="translate(-134,2) scale(1,1)"><g><path fill="none" stroke="none"></path><text fill="#000000" stroke="none" font-family="Arial" font-size="13px" font-style="normal" font-weight="normal" text-decoration="none" x="157" y="215.5">+main(String[] args): void</text></g></g><g transform="translate(-134,2) scale(1,1)"><g><path fill="none" stroke="none"></path><text fill="#000000" stroke="none" font-family="Arial" font-size="13px" font-style="normal" font-weight="normal" text-decoration="none" x="157" y="230.5">~getContactsList(): LinkedList</text></g></g><g transform="translate(-134,2) scale(1,1)"><g><path fill="none" stroke="none"></path><text fill="#000000" stroke="none" font-family="Arial" font-size="13px" font-style="normal" font-weight="normal" text-decoration="none" x="157" y="245.5">~addClient(String s, User u): void</text></g></g><g transform="translate(-134,2) scale(1,1)"><g><path fill="none" stroke="none"></path><text fill="#000000" stroke="none" font-family="Arial" font-size="13px" font-style="normal" font-weight="normal" text-decoration="none" x="157" y="260.5">~removeClient(String s): void</text></g></g><g transform="translate(-134,2) scale(1,1)"><g><path fill="none" stroke="none"></path><text fill="#000000" stroke="none" font-family="Arial" font-size="13px" font-style="normal" font-weight="normal" text-decoration="none" x="157" y="275.5">~updateClientsContacts(boolean add, String s): void</text></g></g><g transform="translate(-134,2) scale(1,1)"><g><path fill="none" stroke="none"></path><text fill="#000000" stroke="none" font-family="Arial" font-size="13px" font-style="normal" font-weight="normal" text-decoration="none" x="157" y="290.5">~isOnline(String s): boolean</text></g></g><g transform="translate(-134,2) scale(1,1)"><g><path fill="none" stroke="none"></path><text fill="#000000" stroke="none" font-family="Arial" font-size="13px" font-style="normal" font-weight="normal" text-decoration="none" x="157" y="305.5">~getClientsNumber(): int</text></g></g><g transform="translate(-134,2) scale(1,1)"><g><path fill="none" stroke="none"></path><text fill="#000000" stroke="none" font-family="Arial" font-size="13px" font-style="normal" font-weight="normal" text-decoration="none" x="157" y="320.5">~sendTo(String from, String to, String message): void</text></g></g><g transform="translate(-134,2) scale(1,1)"><rect fill="#C0C0C0" stroke="none" x="623" y="119" width="257" height="265" opacity="0.2"></rect></g><g transform="translate(-134,2) scale(1,1)"><rect fill="#ffffff" stroke="none" x="616" y="112" width="257" height="265"></rect></g><g transform="translate(-134,2) scale(1,1)"><path fill="none" stroke="#000000" d="M 616 112 L 873 112 L 873 377 L 616 377 L 616 112 Z Z" stroke-miterlimit="10"></path></g><g transform="translate(-134,2) scale(1,1)"><path fill="none" stroke="#000000" d="M 616 137 L 873 137" stroke-miterlimit="10"></path></g><g transform="translate(-134,2) scale(1,1)"><path fill="none" stroke="#000000" d="M 616 235 L 873 235" stroke-miterlimit="10"></path></g><g transform="translate(-134,2) scale(1,1)"><g><path fill="none" stroke="none"></path><text fill="#000000" stroke="none" font-family="Arial" font-size="13px" font-style="normal" font-weight="bold" text-decoration="none" x="731" y="131.5">User</text></g></g><g transform="translate(-134,2) scale(1,1)"><g><path fill="none" stroke="none"></path><text fill="#000000" stroke="none" font-family="Arial" font-size="13px" font-style="normal" font-weight="normal" text-decoration="none" x="621" y="154.5">-socket: Socket</text></g></g><g transform="translate(-134,2) scale(1,1)"><g><path fill="none" stroke="none"></path><text fill="#000000" stroke="none" font-family="Arial" font-size="13px" font-style="normal" font-weight="normal" text-decoration="none" x="621" y="169.5">-in: BufferedReader</text></g></g><g transform="translate(-134,2) scale(1,1)"><g><path fill="none" stroke="none"></path><text fill="#000000" stroke="none" font-family="Arial" font-size="13px" font-style="normal" font-weight="normal" text-decoration="none" x="621" y="184.5">-out: PrintWriter</text></g></g><g transform="translate(-134,2) scale(1,1)"><g><path fill="none" stroke="none"></path><text fill="#000000" stroke="none" font-family="Arial" font-size="13px" font-style="normal" font-weight="normal" text-decoration="none" x="621" y="199.5">-db: SQLiteHelper</text></g></g><g transform="translate(-134,2) scale(1,1)"><g><path fill="none" stroke="none"></path><text fill="#000000" stroke="none" font-family="Arial" font-size="13px" font-style="normal" font-weight="normal" text-decoration="none" x="621" y="214.5">-name: String</text></g></g><g transform="translate(-134,2) scale(1,1)"><g><path fill="none" stroke="none"></path><text fill="#000000" stroke="none" font-family="Arial" font-size="13px" font-style="normal" font-weight="normal" text-decoration="none" x="621" y="229.5">-clientNumber: int</text></g></g><g transform="translate(-134,2) scale(1,1)"><g><path fill="none" stroke="none"></path><text fill="#000000" stroke="none" font-family="Arial" font-size="13px" font-style="normal" font-weight="normal" text-decoration="none" x="621" y="252.5">-handleRegistration(): String</text></g></g><g transform="translate(-134,2) scale(1,1)"><g><path fill="none" stroke="none"></path><text fill="#000000" stroke="none" font-family="Arial" font-size="13px" font-style="normal" font-weight="normal" text-decoration="none" x="621" y="267.5">-deleteAccount(): void</text></g></g><g transform="translate(-134,2) scale(1,1)"><g><path fill="none" stroke="none"></path><text fill="#000000" stroke="none" font-family="Arial" font-size="13px" font-style="normal" font-weight="normal" text-decoration="none" x="621" y="282.5">-handleLogin(): String</text></g></g><g transform="translate(-134,2) scale(1,1)"><g><path fill="none" stroke="none"></path><text fill="#000000" stroke="none" font-family="Arial" font-size="13px" font-style="normal" font-weight="normal" text-decoration="none" x="621" y="297.5">~sendContacts(): void</text></g></g><g transform="translate(-134,2) scale(1,1)"><g><path fill="none" stroke="none"></path><text fill="#000000" stroke="none" font-family="Arial" font-size="13px" font-style="normal" font-weight="normal" text-decoration="none" x="621" y="312.5">~addContact(String s): void</text></g></g><g transform="translate(-134,2) scale(1,1)"><g><path fill="none" stroke="none"></path><text fill="#000000" stroke="none" font-family="Arial" font-size="13px" font-style="normal" font-weight="normal" text-decoration="none" x="621" y="327.5">~removeContact(String s): void</text></g></g><g transform="translate(-134,2) scale(1,1)"><g><path fill="none" stroke="none"></path><text fill="#000000" stroke="none" font-family="Arial" font-size="13px" font-style="normal" font-weight="normal" text-decoration="none" x="621" y="342.5">~receive(String from, String message): void</text></g></g><g transform="translate(-134,2) scale(1,1)"><g><path fill="none" stroke="none"></path><text fill="#000000" stroke="none" font-family="Arial" font-size="13px" font-style="normal" font-weight="normal" text-decoration="none" x="621" y="357.5">-startChat(): void</text></g></g><g transform="translate(-134,2) scale(1,1)"><g><path fill="none" stroke="none"></path><text fill="#000000" stroke="none" font-family="Arial" font-size="13px" font-style="normal" font-weight="normal" text-decoration="none" x="621" y="372.5">+run(): void</text></g></g><g transform="translate(-134,2) scale(1,1)"><rect fill="#C0C0C0" stroke="none" x="287" y="375" width="297" height="191" opacity="0.2"></rect></g><g transform="translate(-134,2) scale(1,1)"><rect fill="#ffffff" stroke="none" x="280" y="368" width="297" height="191"></rect></g><g transform="translate(-134,2) scale(1,1)"><path fill="none" stroke="#000000" d="M 280 368 L 577 368 L 577 559 L 280 559 L 280 368 Z Z" stroke-miterlimit="10"></path></g><g transform="translate(-134,2) scale(1,1)"><path fill="none" stroke="#000000" d="M 280 393 L 577 393" stroke-miterlimit="10"></path></g><g transform="translate(-134,2) scale(1,1)"><path fill="none" stroke="#000000" d="M 280 446 L 577 446" stroke-miterlimit="10"></path></g><g transform="translate(-134,2) scale(1,1)"><g><path fill="none" stroke="none"></path><text fill="#000000" stroke="none" font-family="Arial" font-size="13px" font-style="normal" font-weight="bold" text-decoration="none" x="390" y="387.5">SQLiteHelper</text></g></g><g transform="translate(-134,2) scale(1,1)"><g><path fill="none" stroke="none"></path><text fill="#000000" stroke="none" font-family="Arial" font-size="13px" font-style="normal" font-weight="normal" text-decoration="none" x="285" y="410.5">-connection: Connection</text></g></g><g transform="translate(-134,2) scale(1,1)"><g><path fill="none" stroke="none"></path><text fill="#000000" stroke="none" font-family="Arial" font-size="13px" font-style="normal" font-weight="normal" text-decoration="none" x="285" y="425.5">-statement: Statement</text></g></g><g transform="translate(-134,2) scale(1,1)"><g><path fill="none" stroke="none"></path><text fill="#000000" stroke="none" font-family="Arial" font-size="13px" font-style="normal" font-weight="normal" text-decoration="none" x="285" y="440.5">-DATABASE_PATH: String = "path_to_database"</text></g></g><g transform="translate(-134,2) scale(1,1)"><g><path fill="none" stroke="none"></path><text fill="#000000" stroke="none" font-family="Arial" font-size="13px" font-style="normal" font-weight="normal" text-decoration="none" x="285" y="463.5">+addUser(String name, String password): boolean</text></g></g><g transform="translate(-134,2) scale(1,1)"><g><path fill="none" stroke="none"></path><text fill="#000000" stroke="none" font-family="Arial" font-size="13px" font-style="normal" font-weight="normal" text-decoration="none" x="285" y="478.5">+removeUser(String name): void</text></g></g><g transform="translate(-134,2) scale(1,1)"><g><path fill="none" stroke="none"></path><text fill="#000000" stroke="none" font-family="Arial" font-size="13px" font-style="normal" font-weight="normal" text-decoration="none" x="285" y="493.5">+authUser(String name, String password): int</text></g></g><g transform="translate(-134,2) scale(1,1)"><g><path fill="none" stroke="none"></path><text fill="#000000" stroke="none" font-family="Arial" font-size="13px" font-style="normal" font-weight="normal" text-decoration="none" x="285" y="508.5">-createTable(): void</text></g></g><g transform="translate(-134,2) scale(1,1)"><g><path fill="none" stroke="none"></path><text fill="#000000" stroke="none" font-family="Arial" font-size="13px" font-style="normal" font-weight="normal" text-decoration="none" x="285" y="523.5">-createUsersTableIfNotExist(): void</text></g></g><g transform="translate(-134,2) scale(1,1)"><path fill="none" stroke="#000000" d="M 361 326 L 381 367" stroke-miterlimit="10"></path></g><g transform="translate(-134,2) scale(1,1)"><path fill="none" stroke="#000000" d="M 372.7610614473828 359.71166057828 L 381 367 L 380.32782490835257 356.02055645097767" stroke-miterlimit="10"></path></g><g transform="translate(-134,2) scale(1,1)"><g><path fill="none" stroke="none"></path><text fill="#000000" stroke="none" font-family="Arial" font-size="13px" font-style="normal" font-weight="normal" text-decoration="none" x="355.5" y="356.5">1</text></g></g><g transform="translate(-134,2) scale(1,1)"><path fill="none" stroke="#000000" d="M 361 326 L 381 367" stroke-miterlimit="10"></path></g><g transform="translate(-134,2) scale(1,1)"><path fill="none" stroke="#000000" d="M 615 333 L 567 367" stroke-miterlimit="10"></path></g><g transform="translate(-134,2) scale(1,1)"><path fill="none" stroke="#000000" d="M 572.8598172179976 357.6907281610397 L 567 367 L 577.7261657365975 364.56086724612203" stroke-miterlimit="10"></path></g><g transform="translate(-134,2) scale(1,1)"><g><path fill="none" stroke="none"></path><text fill="#000000" stroke="none" font-family="Arial" font-size="13px" font-style="normal" font-weight="normal" text-decoration="none" x="573.5" y="350.5">1</text></g></g><g transform="translate(-134,2) scale(1,1)"><path fill="none" stroke="#000000" d="M 468 200 L 616 200" stroke-miterlimit="10"></path></g><g transform="translate(-134,2) scale(1,1)"><path fill="none" stroke="#000000" d="M 605.8373251423759 204.209517756016 L 616 200 L 605.8373251423758 195.790482243984" stroke-miterlimit="10"></path></g><g transform="translate(-134,2) scale(1,1)"><g><path fill="none" stroke="none"></path><text fill="#000000" stroke="none" font-family="Arial" font-size="13px" font-style="normal" font-weight="normal" text-decoration="none" x="478.5" y="218.5">0..*</text></g></g><g transform="translate(-134,2) scale(1,1)"><path fill="#C0C0C0" stroke="none" d="M 707 26.5 C 707 20.1487248 712.1487248 15 718.5 15 C 724.8512752 15 730 20.1487248 730 26.5 C 730 32.8512752 724.8512752 38 718.5 38 C 712.1487248 38 707 32.8512752 707 26.5 Z" opacity="0.2"></path></g><g transform="translate(-134,2) scale(1,1)"><path fill="#ffffff" stroke="none" d="M 700 19.5 C 700 13.1487248 705.1487248 8 711.5 8 C 717.8512752 8 723 13.1487248 723 19.5 C 723 25.8512752 717.8512752 31 711.5 31 C 705.1487248 31 700 25.8512752 700 19.5 Z"></path></g><g transform="translate(-134,2) scale(1,1)"><path fill="none" stroke="#000000" d="M 700 19.5 C 700 13.1487248 705.1487248 8 711.5 8 C 717.8512752 8 723 13.1487248 723 19.5 C 723 25.8512752 717.8512752 31 711.5 31 C 705.1487248 31 700 25.8512752 700 19.5 Z" stroke-miterlimit="10"></path></g><g transform="translate(-134,2) scale(1,1)"><g><path fill="none" stroke="none"></path><text fill="#000000" stroke="none" font-family="Arial" font-size="13px" font-style="normal" font-weight="bold" text-decoration="none" x="684.5" y="50.5">Runnable</text></g></g><g transform="translate(-134,2) scale(1,1)"><path fill="none" stroke="#000000" d="M 723 111 L 712.2631578947369 31" stroke-miterlimit="10"></path></g></g></svg>