<?xml version="1.0" encoding="UTF-8" standalone="no"?>
<!DOCTYPE svg PUBLIC "-//W3C//DTD SVG 1.1//EN"
 "http://www.w3.org/Graphics/SVG/1.1/DTD/svg11.dtd">
<!-- Generated by graphviz version 2.38.0 (20140413.2041)
 -->
<!-- Title: automa Pages: 1 -->
<svg width="576pt" height="141pt"
 viewBox="0.00 0.00 576.00 140.70" xmlns="http://www.w3.org/2000/svg" xmlns:xlink="http://www.w3.org/1999/xlink">
<g id="graph0" class="graph" transform="scale(0.251527 0.251527) rotate(0) translate(4 555.38)">
<title>automa</title>
<polygon fill="white" stroke="none" points="-4,4 -4,-555.38 2286.01,-555.38 2286.01,4 -4,4"/>
<!-- Cosa\nvuole\nprenotare? -->
<g id="node1" class="node"><title>Cosa\nvuole\nprenotare?</title>
<ellipse fill="none" stroke="black" cx="56.3259" cy="-301.083" rx="52.1647" ry="52.1647"/>
<ellipse fill="none" stroke="black" cx="56.3259" cy="-301.083" rx="56.1523" ry="56.1523"/>
<text text-anchor="middle" x="56.3259" y="-312.383" font-family="Times,serif" font-size="14.00">Cosa</text>
<text text-anchor="middle" x="56.3259" y="-297.383" font-family="Times,serif" font-size="14.00">vuole</text>
<text text-anchor="middle" x="56.3259" y="-282.383" font-family="Times,serif" font-size="14.00">prenotare?</text>
</g>
<!-- Cosa\nvuole\nprenotare?&#45;&gt;Cosa\nvuole\nprenotare? -->
<g id="edge1" class="edge"><title>Cosa\nvuole\nprenotare?&#45;&gt;Cosa\nvuole\nprenotare?</title>
<path fill="none" stroke="black" d="M36.1088,-353.86C37.7705,-366.261 44.5095,-375.409 56.3259,-375.409 64.6343,-375.409 70.4326,-370.886 73.7206,-363.89"/>
<polygon fill="black" stroke="black" points="77.2034,-364.434 76.543,-353.86 70.4651,-362.538 77.2034,-364.434"/>
<text text-anchor="middle" x="56.3259" y="-379.209" font-family="Times,serif" font-size="14.00">invalid input</text>
</g>
<!-- Quante\n pizze\n vuole? -->
<g id="node3" class="node"><title>Quante\n pizze\n vuole?</title>
<ellipse fill="none" stroke="black" cx="922.945" cy="-336.083" rx="39.6962" ry="39.6962"/>
<text text-anchor="middle" x="922.945" y="-347.383" font-family="Times,serif" font-size="14.00">Quante</text>
<text text-anchor="middle" x="922.945" y="-332.383" font-family="Times,serif" font-size="14.00"> pizze</text>
<text text-anchor="middle" x="922.945" y="-317.383" font-family="Times,serif" font-size="14.00"> vuole?</text>
</g>
<!-- Cosa\nvuole\nprenotare?&#45;&gt;Quante\n pizze\n vuole? -->
<g id="edge2" class="edge"><title>Cosa\nvuole\nprenotare?&#45;&gt;Quante\n pizze\n vuole?</title>
<path fill="none" stroke="black" d="M110.771,-315.769C158.314,-327.534 229.934,-342.083 293.362,-342.083 293.362,-342.083 293.362,-342.083 764.143,-342.083 800.721,-342.083 842.033,-340.454 873.211,-338.893"/>
<polygon fill="black" stroke="black" points="873.568,-342.379 883.374,-338.369 873.207,-335.389 873.568,-342.379"/>
<text text-anchor="middle" x="539.006" y="-345.883" font-family="Times,serif" font-size="14.00">pizzeria</text>
</g>
<!-- Data di\n arrivo?\n(hotel) -->
<g id="node10" class="node"><title>Data di\n arrivo?\n(hotel)</title>
<ellipse fill="none" stroke="black" cx="294.362" cy="-47.0833" rx="41.9398" ry="41.9398"/>
<text text-anchor="middle" x="294.362" y="-58.3833" font-family="Times,serif" font-size="14.00">Data di</text>
<text text-anchor="middle" x="294.362" y="-43.3833" font-family="Times,serif" font-size="14.00"> arrivo?</text>
<text text-anchor="middle" x="294.362" y="-28.3833" font-family="Times,serif" font-size="14.00">(hotel)</text>
</g>
<!-- Cosa\nvuole\nprenotare?&#45;&gt;Data di\n arrivo?\n(hotel) -->
<g id="edge18" class="edge"><title>Cosa\nvuole\nprenotare?&#45;&gt;Data di\n arrivo?\n(hotel)</title>
<path fill="none" stroke="black" d="M95.2493,-260.274C140.183,-211.92 214.446,-132.005 258.156,-84.9688"/>
<polygon fill="black" stroke="black" points="260.919,-87.1379 265.162,-77.43 255.791,-82.3728 260.919,-87.1379"/>
<text text-anchor="middle" x="168.152" y="-222.883" font-family="Times,serif" font-size="14.00">hotel</text>
</g>
<!-- Data di\narrivo\n(appartamento) -->
<g id="node13" class="node"><title>Data di\narrivo\n(appartamento)</title>
<ellipse fill="none" stroke="black" cx="294.362" cy="-210.083" rx="70.922" ry="70.922"/>
<text text-anchor="middle" x="294.362" y="-221.383" font-family="Times,serif" font-size="14.00">Data di</text>
<text text-anchor="middle" x="294.362" y="-206.383" font-family="Times,serif" font-size="14.00">arrivo</text>
<text text-anchor="middle" x="294.362" y="-191.383" font-family="Times,serif" font-size="14.00">(appartamento)</text>
</g>
<!-- Cosa\nvuole\nprenotare?&#45;&gt;Data di\narrivo\n(appartamento) -->
<g id="edge25" class="edge"><title>Cosa\nvuole\nprenotare?&#45;&gt;Data di\narrivo\n(appartamento)</title>
<path fill="none" stroke="black" d="M109.125,-281.113C141.265,-268.722 183.093,-252.596 218.768,-238.842"/>
<polygon fill="black" stroke="black" points="220.102,-242.079 228.174,-235.216 217.584,-235.547 220.102,-242.079"/>
<text text-anchor="middle" x="168.152" y="-275.883" font-family="Times,serif" font-size="14.00">appartamento</text>
</g>
<!-- Per quante\npersone\nvuole\nprenotare? -->
<g id="node15" class="node"><title>Per quante\npersone\nvuole\nprenotare?</title>
<ellipse fill="none" stroke="black" cx="294.362" cy="-445.083" rx="52.1524" ry="52.1524"/>
<text text-anchor="middle" x="294.362" y="-463.883" font-family="Times,serif" font-size="14.00">Per quante</text>
<text text-anchor="middle" x="294.362" y="-448.883" font-family="Times,serif" font-size="14.00">persone</text>
<text text-anchor="middle" x="294.362" y="-433.883" font-family="Times,serif" font-size="14.00">vuole</text>
<text text-anchor="middle" x="294.362" y="-418.883" font-family="Times,serif" font-size="14.00">prenotare?</text>
</g>
<!-- Cosa\nvuole\nprenotare?&#45;&gt;Per quante\npersone\nvuole\nprenotare? -->
<g id="edge30" class="edge"><title>Cosa\nvuole\nprenotare?&#45;&gt;Per quante\npersone\nvuole\nprenotare?</title>
<path fill="none" stroke="black" d="M101.192,-335.576C110.725,-342.62 120.884,-349.795 130.652,-356.083 165.271,-378.373 205.904,-400.601 237.904,-417.268"/>
<polygon fill="black" stroke="black" points="236.624,-420.547 247.114,-422.036 239.843,-414.331 236.624,-420.547"/>
<text text-anchor="middle" x="168.152" y="-402.883" font-family="Times,serif" font-size="14.00">ristorante</text>
</g>
<!-- FINE -->
<g id="node2" class="node"><title>FINE</title>
<ellipse fill="none" stroke="black" cx="2247.46" cy="-237.083" rx="30.5892" ry="30.5892"/>
<ellipse fill="none" stroke="black" cx="2247.46" cy="-237.083" rx="34.5946" ry="34.5946"/>
<text text-anchor="middle" x="2247.46" y="-233.383" font-family="Times,serif" font-size="14.00">FINE</text>
</g>
<!-- Quante\n pizze\n vuole?&#45;&gt;Quante\n pizze\n vuole? -->
<g id="edge3" class="edge"><title>Quante\n pizze\n vuole?&#45;&gt;Quante\n pizze\n vuole?</title>
<path fill="none" stroke="black" d="M909.084,-373.2C909.364,-384.672 913.984,-393.681 922.945,-393.681 928.966,-393.681 933.027,-389.614 935.129,-383.466"/>
<polygon fill="black" stroke="black" points="938.648,-383.633 936.807,-373.2 931.74,-382.504 938.648,-383.633"/>
<text text-anchor="middle" x="922.945" y="-397.481" font-family="Times,serif" font-size="14.00">invalid input</text>
</g>
<!-- Che pizza\nvuole? -->
<g id="node4" class="node"><title>Che pizza\nvuole?</title>
<ellipse fill="none" stroke="black" cx="1095.75" cy="-336.083" rx="50.41" ry="50.41"/>
<text text-anchor="middle" x="1095.75" y="-339.883" font-family="Times,serif" font-size="14.00">Che pizza</text>
<text text-anchor="middle" x="1095.75" y="-324.883" font-family="Times,serif" font-size="14.00">vuole?</text>
</g>
<!-- Quante\n pizze\n vuole?&#45;&gt;Che pizza\nvuole? -->
<g id="edge4" class="edge"><title>Quante\n pizze\n vuole?&#45;&gt;Che pizza\nvuole?</title>
<path fill="none" stroke="black" d="M962.703,-336.083C984.148,-336.083 1011.25,-336.083 1035.32,-336.083"/>
<polygon fill="black" stroke="black" points="1035.42,-339.583 1045.42,-336.083 1035.42,-332.583 1035.42,-339.583"/>
<text text-anchor="middle" x="1004.04" y="-339.883" font-family="Times,serif" font-size="14.00">1..*</text>
</g>
<!-- Vuole\ndelle\nbibite? -->
<g id="node5" class="node"><title>Vuole\ndelle\nbibite?</title>
<ellipse fill="none" stroke="black" cx="1310.43" cy="-330.083" rx="37.4533" ry="37.4533"/>
<text text-anchor="middle" x="1310.43" y="-341.383" font-family="Times,serif" font-size="14.00">Vuole</text>
<text text-anchor="middle" x="1310.43" y="-326.383" font-family="Times,serif" font-size="14.00">delle</text>
<text text-anchor="middle" x="1310.43" y="-311.383" font-family="Times,serif" font-size="14.00">bibite?</text>
</g>
<!-- Quante\n pizze\n vuole?&#45;&gt;Vuole\ndelle\nbibite? -->
<g id="edge5" class="edge"><title>Quante\n pizze\n vuole?&#45;&gt;Vuole\ndelle\nbibite?</title>
<path fill="none" stroke="black" d="M954.216,-311.134C977.562,-293.595 1011.52,-271.623 1045.54,-262.083 1124.4,-239.975 1217.27,-278.858 1269.15,-306.357"/>
<polygon fill="black" stroke="black" points="1267.58,-309.487 1278.04,-311.172 1270.91,-303.332 1267.58,-309.487"/>
<text text-anchor="middle" x="1095.75" y="-265.883" font-family="Times,serif" font-size="14.00">0</text>
</g>
<!-- Che pizza\nvuole?&#45;&gt;Che pizza\nvuole? -->
<g id="edge7" class="edge"><title>Che pizza\nvuole?&#45;&gt;Che pizza\nvuole?</title>
<path fill="none" stroke="black" d="M1079.1,-383.576C1080.27,-395.429 1085.82,-404.288 1095.75,-404.288 1102.58,-404.288 1107.33,-400.1 1110.02,-393.632"/>
<polygon fill="black" stroke="black" points="1113.5,-394.113 1112.39,-383.576 1106.69,-392.503 1113.5,-394.113"/>
<text text-anchor="middle" x="1095.75" y="-408.088" font-family="Times,serif" font-size="14.00">invalid input</text>
</g>
<!-- Che pizza\nvuole?&#45;&gt;Vuole\ndelle\nbibite? -->
<g id="edge6" class="edge"><title>Che pizza\nvuole?&#45;&gt;Vuole\ndelle\nbibite?</title>
<path fill="none" stroke="black" d="M1146.08,-334.692C1181.11,-333.703 1227.86,-332.385 1262.37,-331.411"/>
<polygon fill="black" stroke="black" points="1262.76,-334.901 1272.66,-331.121 1262.56,-327.904 1262.76,-334.901"/>
<text text-anchor="middle" x="1209.45" y="-353.883" font-family="Times,serif" font-size="14.00">&quot;Pizza valida fra</text>
<text text-anchor="middle" x="1209.45" y="-338.883" font-family="Times,serif" font-size="14.00">le disponibili&quot;</text>
</g>
<!-- Vuole\ndelle\nbibite?&#45;&gt;Vuole\ndelle\nbibite? -->
<g id="edge8" class="edge"><title>Vuole\ndelle\nbibite?&#45;&gt;Vuole\ndelle\nbibite?</title>
<path fill="none" stroke="black" d="M1291.74,-362.84C1291.01,-375.275 1297.25,-385.56 1310.43,-385.56 1319.7,-385.56 1325.53,-380.475 1327.93,-373.134"/>
<polygon fill="black" stroke="black" points="1331.45,-373.178 1329.12,-362.84 1324.49,-372.37 1331.45,-373.178"/>
<text text-anchor="middle" x="1310.43" y="-389.36" font-family="Times,serif" font-size="14.00">invalid input</text>
</g>
<!-- Quante\nbibite\nvuole? -->
<g id="node6" class="node"><title>Quante\nbibite\nvuole?</title>
<ellipse fill="none" stroke="black" cx="1559.5" cy="-330.083" rx="39.6962" ry="39.6962"/>
<text text-anchor="middle" x="1559.5" y="-341.383" font-family="Times,serif" font-size="14.00">Quante</text>
<text text-anchor="middle" x="1559.5" y="-326.383" font-family="Times,serif" font-size="14.00">bibite</text>
<text text-anchor="middle" x="1559.5" y="-311.383" font-family="Times,serif" font-size="14.00">vuole?</text>
</g>
<!-- Vuole\ndelle\nbibite?&#45;&gt;Quante\nbibite\nvuole? -->
<g id="edge9" class="edge"><title>Vuole\ndelle\nbibite?&#45;&gt;Quante\nbibite\nvuole?</title>
<path fill="none" stroke="black" d="M1348.15,-330.083C1390.98,-330.083 1461.97,-330.083 1509.48,-330.083"/>
<polygon fill="black" stroke="black" points="1509.54,-333.583 1519.54,-330.083 1509.54,-326.583 1509.54,-333.583"/>
<text text-anchor="middle" x="1433.91" y="-333.883" font-family="Times,serif" font-size="14.00">s</text>
</g>
<!-- Per che\nora vuole\nritirarle? -->
<g id="node7" class="node"><title>Per che\nora vuole\nritirarle?</title>
<ellipse fill="none" stroke="black" cx="1936.42" cy="-294.083" rx="48.1667" ry="48.1667"/>
<text text-anchor="middle" x="1936.42" y="-305.383" font-family="Times,serif" font-size="14.00">Per che</text>
<text text-anchor="middle" x="1936.42" y="-290.383" font-family="Times,serif" font-size="14.00">ora vuole</text>
<text text-anchor="middle" x="1936.42" y="-275.383" font-family="Times,serif" font-size="14.00">ritirarle?</text>
</g>
<!-- Vuole\ndelle\nbibite?&#45;&gt;Per che\nora vuole\nritirarle? -->
<g id="edge10" class="edge"><title>Vuole\ndelle\nbibite?&#45;&gt;Per che\nora vuole\nritirarle?</title>
<path fill="none" stroke="black" d="M1346.72,-319.634C1421.77,-298.606 1602.88,-254.158 1756.34,-266.083 1797.6,-269.29 1843.73,-276.591 1878.84,-282.935"/>
<polygon fill="black" stroke="black" points="1878.43,-286.418 1888.9,-284.78 1879.7,-279.533 1878.43,-286.418"/>
<text text-anchor="middle" x="1626.1" y="-271.883" font-family="Times,serif" font-size="14.00">n</text>
</g>
<!-- Quante\nbibite\nvuole?&#45;&gt;Quante\nbibite\nvuole? -->
<g id="edge11" class="edge"><title>Quante\nbibite\nvuole?&#45;&gt;Quante\nbibite\nvuole?</title>
<path fill="none" stroke="black" d="M1547.16,-367.753C1547.52,-378.96 1551.64,-387.681 1559.5,-387.681 1564.79,-387.681 1568.38,-383.745 1570.28,-377.762"/>
<polygon fill="black" stroke="black" points="1573.76,-378.175 1571.85,-367.753 1566.84,-377.088 1573.76,-378.175"/>
<text text-anchor="middle" x="1559.5" y="-391.481" font-family="Times,serif" font-size="14.00">invalid input</text>
</g>
<!-- Quante\nbibite\nvuole?&#45;&gt;Per che\nora vuole\nritirarle? -->
<g id="edge13" class="edge"><title>Quante\nbibite\nvuole?&#45;&gt;Per che\nora vuole\nritirarle?</title>
<path fill="none" stroke="black" d="M1590.53,-354.959C1607.7,-367.553 1630.31,-381.535 1653.1,-388.083 1697.2,-400.754 1711.02,-395.254 1756.34,-388.083 1808.95,-379.759 1824.02,-377.392 1870.34,-351.083 1878.49,-346.453 1886.54,-340.691 1894.05,-334.626"/>
<polygon fill="black" stroke="black" points="1896.56,-337.082 1901.96,-327.964 1892.05,-331.726 1896.56,-337.082"/>
<text text-anchor="middle" x="1704.72" y="-399.883" font-family="Times,serif" font-size="14.00">0</text>
</g>
<!-- Che bibita\nvuole? -->
<g id="node8" class="node"><title>Che bibita\nvuole?</title>
<ellipse fill="none" stroke="black" cx="1704.72" cy="-327.083" rx="51.7379" ry="51.7379"/>
<text text-anchor="middle" x="1704.72" y="-330.883" font-family="Times,serif" font-size="14.00">Che bibita</text>
<text text-anchor="middle" x="1704.72" y="-315.883" font-family="Times,serif" font-size="14.00">vuole?</text>
</g>
<!-- Quante\nbibite\nvuole?&#45;&gt;Che bibita\nvuole? -->
<g id="edge12" class="edge"><title>Quante\nbibite\nvuole?&#45;&gt;Che bibita\nvuole?</title>
<path fill="none" stroke="black" d="M1599.26,-329.271C1612.72,-328.989 1628.16,-328.666 1642.97,-328.356"/>
<polygon fill="black" stroke="black" points="1643.16,-331.853 1653.08,-328.144 1643.01,-324.854 1643.16,-331.853"/>
<text text-anchor="middle" x="1626.1" y="-332.883" font-family="Times,serif" font-size="14.00">1.*</text>
</g>
<!-- Per che\nora vuole\nritirarle?&#45;&gt;Per che\nora vuole\nritirarle? -->
<g id="edge15" class="edge"><title>Per che\nora vuole\nritirarle?&#45;&gt;Per che\nora vuole\nritirarle?</title>
<path fill="none" stroke="black" d="M1920.46,-339.486C1921.44,-351.276 1926.76,-360.167 1936.42,-360.167 1943.06,-360.167 1947.65,-355.964 1950.19,-349.507"/>
<polygon fill="black" stroke="black" points="1953.66,-350.003 1952.38,-339.486 1946.83,-348.508 1953.66,-350.003"/>
<text text-anchor="middle" x="1936.42" y="-363.967" font-family="Times,serif" font-size="14.00">invalid input</text>
</g>
<!-- Conferma\nl\&#39;ordine? -->
<g id="node9" class="node"><title>Conferma\nl\&#39;ordine?</title>
<ellipse fill="none" stroke="black" cx="2110.71" cy="-237.083" rx="50.41" ry="50.41"/>
<text text-anchor="middle" x="2110.71" y="-240.883" font-family="Times,serif" font-size="14.00">Conferma</text>
<text text-anchor="middle" x="2110.71" y="-225.883" font-family="Times,serif" font-size="14.00">l&#39;ordine?</text>
</g>
<!-- Per che\nora vuole\nritirarle?&#45;&gt;Conferma\nl\&#39;ordine? -->
<g id="edge16" class="edge"><title>Per che\nora vuole\nritirarle?&#45;&gt;Conferma\nl\&#39;ordine?</title>
<path fill="none" stroke="black" d="M1982.24,-279.256C2003.88,-272.098 2030.07,-263.432 2053.07,-255.822"/>
<polygon fill="black" stroke="black" points="2054.32,-259.097 2062.71,-252.633 2052.12,-252.451 2054.32,-259.097"/>
<text text-anchor="middle" x="2022.51" y="-291.883" font-family="Times,serif" font-size="14.00">&quot;orario</text>
<text text-anchor="middle" x="2022.51" y="-276.883" font-family="Times,serif" font-size="14.00">valido&quot;</text>
</g>
<!-- Che bibita\nvuole?&#45;&gt;Per che\nora vuole\nritirarle? -->
<g id="edge14" class="edge"><title>Che bibita\nvuole?&#45;&gt;Per che\nora vuole\nritirarle?</title>
<path fill="none" stroke="black" d="M1755.85,-319.882C1791.92,-314.699 1840.65,-307.698 1878.25,-302.297"/>
<polygon fill="black" stroke="black" points="1879.14,-305.706 1888.54,-300.819 1878.14,-298.777 1879.14,-305.706"/>
<text text-anchor="middle" x="1822.34" y="-335.883" font-family="Times,serif" font-size="14.00">&quot;Bibita valida</text>
<text text-anchor="middle" x="1822.34" y="-320.883" font-family="Times,serif" font-size="14.00">tra le disponibili&quot;</text>
</g>
<!-- Conferma\nl\&#39;ordine?&#45;&gt;FINE -->
<g id="edge17" class="edge"><title>Conferma\nl\&#39;ordine?&#45;&gt;FINE</title>
<path fill="none" stroke="black" d="M2161.12,-237.083C2174.64,-237.083 2189.19,-237.083 2202.38,-237.083"/>
<polygon fill="black" stroke="black" points="2202.63,-240.583 2212.63,-237.083 2202.63,-233.583 2202.63,-240.583"/>
<text text-anchor="middle" x="2186.92" y="-240.883" font-family="Times,serif" font-size="14.00">s/n</text>
</g>
<!-- Data di\n arrivo?\n(hotel)&#45;&gt;Data di\n arrivo?\n(hotel) -->
<g id="edge19" class="edge"><title>Data di\n arrivo?\n(hotel)&#45;&gt;Data di\n arrivo?\n(hotel)</title>
<path fill="none" stroke="black" d="M270.854,-81.7491C269.669,-95.4005 277.505,-106.803 294.362,-106.803 306.742,-106.803 314.257,-100.653 316.906,-91.9799"/>
<polygon fill="black" stroke="black" points="320.416,-92.0336 317.871,-81.7491 313.447,-91.3762 320.416,-92.0336"/>
<text text-anchor="middle" x="294.362" y="-110.603" font-family="Times,serif" font-size="14.00">invalid input</text>
</g>
<!-- Data di\npartenza? -->
<g id="node11" class="node"><title>Data di\npartenza?</title>
<ellipse fill="none" stroke="black" cx="539.006" cy="-48.0833" rx="48.1667" ry="48.1667"/>
<text text-anchor="middle" x="539.006" y="-51.8833" font-family="Times,serif" font-size="14.00">Data di</text>
<text text-anchor="middle" x="539.006" y="-36.8833" font-family="Times,serif" font-size="14.00">partenza?</text>
</g>
<!-- Data di\n arrivo?\n(hotel)&#45;&gt;Data di\npartenza? -->
<g id="edge20" class="edge"><title>Data di\n arrivo?\n(hotel)&#45;&gt;Data di\npartenza?</title>
<path fill="none" stroke="black" d="M336.249,-47.2518C375.844,-47.4149 436.243,-47.6639 480.64,-47.8468"/>
<polygon fill="black" stroke="black" points="480.692,-51.347 490.706,-47.8883 480.721,-44.347 480.692,-51.347"/>
<text text-anchor="middle" x="420.573" y="-51.8833" font-family="Times,serif" font-size="14.00">&quot;Data valida&quot;</text>
</g>
<!-- Data di\npartenza?&#45;&gt;Data di\npartenza? -->
<g id="edge21" class="edge"><title>Data di\npartenza?&#45;&gt;Data di\npartenza?</title>
<path fill="none" stroke="black" d="M516.914,-90.9856C517.468,-103.996 524.832,-114.167 539.006,-114.167 549.304,-114.167 556.007,-108.798 559.115,-100.871"/>
<polygon fill="black" stroke="black" points="562.563,-101.478 561.097,-90.9856 555.7,-100.103 562.563,-101.478"/>
<text text-anchor="middle" x="539.006" y="-117.967" font-family="Times,serif" font-size="14.00">invalid input</text>
</g>
<!-- Tipo di\nsoggiorno -->
<g id="node12" class="node"><title>Tipo di\nsoggiorno</title>
<ellipse fill="none" stroke="black" cx="763.143" cy="-207.083" rx="50.41" ry="50.41"/>
<text text-anchor="middle" x="763.143" y="-210.883" font-family="Times,serif" font-size="14.00">Tipo di</text>
<text text-anchor="middle" x="763.143" y="-195.883" font-family="Times,serif" font-size="14.00">soggiorno</text>
</g>
<!-- Data di\npartenza?&#45;&gt;Tipo di\nsoggiorno -->
<g id="edge22" class="edge"><title>Data di\npartenza?&#45;&gt;Tipo di\nsoggiorno</title>
<path fill="none" stroke="black" d="M578.445,-75.5974C615.969,-102.456 673.188,-143.412 713.783,-172.469"/>
<polygon fill="black" stroke="black" points="711.756,-175.322 721.925,-178.296 715.83,-169.63 711.756,-175.322"/>
<text text-anchor="middle" x="657.438" y="-159.883" font-family="Times,serif" font-size="14.00">&quot;Data valida&quot;</text>
</g>
<!-- Tipo di\nsoggiorno&#45;&gt;Conferma\nl\&#39;ordine? -->
<g id="edge24" class="edge"><title>Tipo di\nsoggiorno&#45;&gt;Conferma\nl\&#39;ordine?</title>
<path fill="none" stroke="black" d="M813.54,-207.083C844.648,-207.083 885.645,-207.083 921.945,-207.083 921.945,-207.083 921.945,-207.083 1937.42,-207.083 1975.94,-207.083 2018.6,-214.452 2051.83,-221.886"/>
<polygon fill="black" stroke="black" points="2051.3,-225.354 2061.83,-224.186 2052.87,-218.532 2051.3,-225.354"/>
<text text-anchor="middle" x="1433.91" y="-210.883" font-family="Times,serif" font-size="14.00">Tipo di soggiorno valido</text>
</g>
<!-- Tipo di\nsoggiorno&#45;&gt;Tipo di\nsoggiorno -->
<g id="edge23" class="edge"><title>Tipo di\nsoggiorno&#45;&gt;Tipo di\nsoggiorno</title>
<path fill="none" stroke="black" d="M747.639,-254.89C748.787,-266.585 753.955,-275.288 763.143,-275.288 769.459,-275.288 773.876,-271.174 776.392,-264.803"/>
<polygon fill="black" stroke="black" points="779.842,-265.417 778.647,-254.89 773.016,-263.865 779.842,-265.417"/>
<text text-anchor="middle" x="763.143" y="-279.088" font-family="Times,serif" font-size="14.00">invalid input</text>
</g>
<!-- Data di\narrivo\n(appartamento)&#45;&gt;Data di\narrivo\n(appartamento) -->
<g id="edge26" class="edge"><title>Data di\narrivo\n(appartamento)&#45;&gt;Data di\narrivo\n(appartamento)</title>
<path fill="none" stroke="black" d="M271.95,-277.391C274.71,-289.949 282.181,-298.794 294.362,-298.794 303.118,-298.794 309.44,-294.225 313.328,-286.992"/>
<polygon fill="black" stroke="black" points="316.69,-287.985 316.775,-277.391 310.102,-285.62 316.69,-287.985"/>
<text text-anchor="middle" x="294.362" y="-302.594" font-family="Times,serif" font-size="14.00">invalid input</text>
</g>
<!-- Settimane\ndi\npermanenza? -->
<g id="node14" class="node"><title>Settimane\ndi\npermanenza?</title>
<ellipse fill="none" stroke="black" cx="539.006" cy="-210.083" rx="62.8651" ry="62.8651"/>
<text text-anchor="middle" x="539.006" y="-221.383" font-family="Times,serif" font-size="14.00">Settimane</text>
<text text-anchor="middle" x="539.006" y="-206.383" font-family="Times,serif" font-size="14.00">di</text>
<text text-anchor="middle" x="539.006" y="-191.383" font-family="Times,serif" font-size="14.00">permanenza?</text>
</g>
<!-- Data di\narrivo\n(appartamento)&#45;&gt;Settimane\ndi\npermanenza? -->
<g id="edge27" class="edge"><title>Data di\narrivo\n(appartamento)&#45;&gt;Settimane\ndi\npermanenza?</title>
<path fill="none" stroke="black" d="M365.219,-210.083C396.802,-210.083 434.097,-210.083 465.939,-210.083"/>
<polygon fill="black" stroke="black" points="466.071,-213.583 476.071,-210.083 466.071,-206.583 466.071,-213.583"/>
<text text-anchor="middle" x="420.573" y="-213.883" font-family="Times,serif" font-size="14.00">Data valida</text>
</g>
<!-- Settimane\ndi\npermanenza?&#45;&gt;Tipo di\nsoggiorno -->
<g id="edge29" class="edge"><title>Settimane\ndi\npermanenza?&#45;&gt;Tipo di\nsoggiorno</title>
<path fill="none" stroke="black" d="M602.179,-209.244C633.545,-208.82 671.41,-208.309 702.426,-207.89"/>
<polygon fill="black" stroke="black" points="702.71,-211.386 712.662,-207.752 702.616,-204.387 702.71,-211.386"/>
<text text-anchor="middle" x="657.438" y="-212.883" font-family="Times,serif" font-size="14.00">0..*</text>
</g>
<!-- Settimane\ndi\npermanenza?&#45;&gt;Settimane\ndi\npermanenza? -->
<g id="edge28" class="edge"><title>Settimane\ndi\npermanenza?&#45;&gt;Settimane\ndi\npermanenza?</title>
<path fill="none" stroke="black" d="M517.595,-269.37C519.769,-281.939 526.906,-291.016 539.006,-291.016 547.702,-291.016 553.835,-286.327 557.404,-279.022"/>
<polygon fill="black" stroke="black" points="560.778,-279.958 560.416,-269.37 554.096,-277.873 560.778,-279.958"/>
<text text-anchor="middle" x="539.006" y="-294.816" font-family="Times,serif" font-size="14.00">invalid input</text>
</g>
<!-- Per quante\npersone\nvuole\nprenotare?&#45;&gt;Per quante\npersone\nvuole\nprenotare? -->
<g id="edge31" class="edge"><title>Per quante\npersone\nvuole\nprenotare?&#45;&gt;Per quante\npersone\nvuole\nprenotare?</title>
<path fill="none" stroke="black" d="M270.854,-492.081C271.884,-505.278 279.72,-515.409 294.362,-515.409 305.001,-515.409 312.047,-510.061 315.499,-502.075"/>
<polygon fill="black" stroke="black" points="318.967,-502.619 317.871,-492.081 312.156,-501.003 318.967,-502.619"/>
<text text-anchor="middle" x="294.362" y="-519.209" font-family="Times,serif" font-size="14.00">invalid input</text>
</g>
<!-- Antipasti -->
<g id="node16" class="node"><title>Antipasti</title>
<ellipse fill="none" stroke="black" cx="539.006" cy="-463.083" rx="42.7926" ry="42.7926"/>
<text text-anchor="middle" x="539.006" y="-459.383" font-family="Times,serif" font-size="14.00">Antipasti</text>
</g>
<!-- Per quante\npersone\nvuole\nprenotare?&#45;&gt;Antipasti -->
<g id="edge32" class="edge"><title>Per quante\npersone\nvuole\nprenotare?&#45;&gt;Antipasti</title>
<path fill="none" stroke="black" d="M346.821,-448.901C387.731,-451.935 444.718,-456.163 485.818,-459.212"/>
<polygon fill="black" stroke="black" points="485.673,-462.711 495.905,-459.96 486.191,-455.73 485.673,-462.711"/>
<text text-anchor="middle" x="420.573" y="-459.883" font-family="Times,serif" font-size="14.00">1..*</text>
</g>
<!-- Antipasti&#45;&gt;Antipasti -->
<g id="edge33" class="edge"><title>Antipasti&#45;&gt;Antipasti</title>
<path fill="none" stroke="black" d="M516.902,-499.947C516.427,-513.186 523.795,-523.979 539.006,-523.979 550.057,-523.979 556.969,-518.282 559.74,-510.088"/>
<polygon fill="black" stroke="black" points="563.239,-510.325 561.109,-499.947 556.302,-509.388 563.239,-510.325"/>
<text text-anchor="middle" x="539.006" y="-527.779" font-family="Times,serif" font-size="14.00">invalid input</text>
</g>
<!-- Primi -->
<g id="node17" class="node"><title>Primi</title>
<ellipse fill="none" stroke="black" cx="763.143" cy="-465.083" rx="30.5947" ry="30.5947"/>
<text text-anchor="middle" x="763.143" y="-461.383" font-family="Times,serif" font-size="14.00">Primi</text>
</g>
<!-- Antipasti&#45;&gt;Primi -->
<g id="edge34" class="edge"><title>Antipasti&#45;&gt;Primi</title>
<path fill="none" stroke="black" d="M582.049,-463.462C622.346,-463.825 682.725,-464.368 722.278,-464.724"/>
<polygon fill="black" stroke="black" points="722.322,-468.225 732.353,-464.815 722.385,-461.225 722.322,-468.225"/>
<text text-anchor="middle" x="657.438" y="-482.883" font-family="Times,serif" font-size="14.00">antipasto</text>
<text text-anchor="middle" x="657.438" y="-467.883" font-family="Times,serif" font-size="14.00">valido</text>
</g>
<!-- Primi&#45;&gt;Primi -->
<g id="edge35" class="edge"><title>Primi&#45;&gt;Primi</title>
<path fill="none" stroke="black" d="M747.639,-491.55C746.162,-503.39 751.33,-513.631 763.143,-513.631 771.264,-513.631 776.244,-508.79 778.084,-501.918"/>
<polygon fill="black" stroke="black" points="781.6,-501.725 778.647,-491.55 774.61,-501.345 781.6,-501.725"/>
<text text-anchor="middle" x="763.143" y="-517.431" font-family="Times,serif" font-size="14.00">invalid input</text>
</g>
<!-- Secondi -->
<g id="node18" class="node"><title>Secondi</title>
<ellipse fill="none" stroke="black" cx="922.945" cy="-472.083" rx="38.9931" ry="38.9931"/>
<text text-anchor="middle" x="922.945" y="-468.383" font-family="Times,serif" font-size="14.00">Secondi</text>
</g>
<!-- Primi&#45;&gt;Secondi -->
<g id="edge36" class="edge"><title>Primi&#45;&gt;Secondi</title>
<path fill="none" stroke="black" d="M793.824,-466.4C816.287,-467.396 847.612,-468.786 873.665,-469.942"/>
<polygon fill="black" stroke="black" points="873.583,-473.441 883.728,-470.388 873.893,-466.448 873.583,-473.441"/>
<text text-anchor="middle" x="848.347" y="-487.883" font-family="Times,serif" font-size="14.00">Primo</text>
<text text-anchor="middle" x="848.347" y="-472.883" font-family="Times,serif" font-size="14.00">valido</text>
</g>
<!-- Secondi&#45;&gt;Secondi -->
<g id="edge37" class="edge"><title>Secondi&#45;&gt;Secondi</title>
<path fill="none" stroke="black" d="M909.078,-508.537C909.29,-520.02 913.912,-529.08 922.945,-529.08 929.014,-529.08 933.093,-524.99 935.18,-518.824"/>
<polygon fill="black" stroke="black" points="938.701,-518.962 936.813,-508.537 931.788,-517.865 938.701,-518.962"/>
<text text-anchor="middle" x="922.945" y="-532.88" font-family="Times,serif" font-size="14.00">invalid input</text>
</g>
<!-- Desserts -->
<g id="node19" class="node"><title>Desserts</title>
<ellipse fill="none" stroke="black" cx="1095.75" cy="-478.083" rx="40.0939" ry="40.0939"/>
<text text-anchor="middle" x="1095.75" y="-474.383" font-family="Times,serif" font-size="14.00">Desserts</text>
</g>
<!-- Secondi&#45;&gt;Desserts -->
<g id="edge38" class="edge"><title>Secondi&#45;&gt;Desserts</title>
<path fill="none" stroke="black" d="M962.277,-473.43C986.763,-474.29 1018.76,-475.414 1045.17,-476.342"/>
<polygon fill="black" stroke="black" points="1045.24,-479.846 1055.36,-476.7 1045.49,-472.851 1045.24,-479.846"/>
<text text-anchor="middle" x="1004.04" y="-493.883" font-family="Times,serif" font-size="14.00">Secondo</text>
<text text-anchor="middle" x="1004.04" y="-478.883" font-family="Times,serif" font-size="14.00">valido</text>
</g>
<!-- Desserts&#45;&gt;Vuole\ndelle\nbibite? -->
<g id="edge40" class="edge"><title>Desserts&#45;&gt;Vuole\ndelle\nbibite?</title>
<path fill="none" stroke="black" d="M1129.59,-455.709C1161.67,-433.794 1211.83,-399.373 1254.95,-369.083 1260.2,-365.398 1265.71,-361.491 1271.13,-357.63"/>
<polygon fill="black" stroke="black" points="1273.42,-360.297 1279.53,-351.637 1269.35,-354.6 1273.42,-360.297"/>
</g>
<!-- Desserts&#45;&gt;Desserts -->
<g id="edge39" class="edge"><title>Desserts&#45;&gt;Desserts</title>
<path fill="none" stroke="black" d="M1078.87,-514.803C1078.96,-526.815 1084.59,-536.38 1095.75,-536.38 1103.42,-536.38 1108.48,-531.859 1110.92,-525.13"/>
<polygon fill="black" stroke="black" points="1114.45,-525.239 1112.62,-514.803 1107.54,-524.099 1114.45,-525.239"/>
<text text-anchor="middle" x="1095.75" y="-540.18" font-family="Times,serif" font-size="14.00">invalid input</text>
</g>
</g>
</svg>
