<svg version="1.1" xmlns="http://www.w3.org/2000/svg" xmlns:xlink="http://www.w3.org/1999/xlink" width="971" height="636"><defs></defs><g><g transform="translate(-38,-14) scale(1,1)"><rect fill="#C0C0C0" stroke="none" x="55" y="31" width="380.4" height="15" opacity="0.2"></rect></g><g transform="translate(-38,-14) scale(1,1)"><rect fill="#C0C0C0" stroke="none" x="55" y="45" width="951" height="506" opacity="0.2"></rect></g><g transform="translate(-38,-14) scale(1,1)"><rect fill="#ffffff" stroke="none" x="48" y="39" width="951" height="505"></rect></g><g transform="translate(-38,-14) scale(1,1)"><path fill="none" stroke="#000000" d="M 48 39 L 999 39 L 999 544 L 48 544 L 48 39 Z Z" stroke-miterlimit="10"></path></g><g transform="translate(-38,-14) scale(1,1)"><rect fill="#ffffff" stroke="none" x="48" y="24" width="380.4" height="15"></rect></g><g transform="translate(-38,-14) scale(1,1)"><path fill="none" stroke="#000000" d="M 48 24 L 428.4 24 L 428.4 39 L 48 39 L 48 24 Z Z" stroke-miterlimit="10"></path></g><g transform="translate(-38,-14) scale(1,1)"><rect fill="#ffffff" stroke="none" x="48" y="38" width="951" height="506"></rect></g><g transform="translate(-38,-14) scale(1,1)"><path fill="none" stroke="#000000" d="M 48 38 L 999 38 L 999 544 L 48 544 L 48 38 Z Z" stroke-miterlimit="10"></path></g><g transform="translate(-38,-14) scale(1,1)"><g><path fill="none" stroke="none"></path><text fill="#000000" stroke="none" font-family="Arial" font-size="13px" font-style="normal" font-weight="bold" text-decoration="none" x="490" y="58.5">risponditore</text></g></g><g transform="translate(-38,-14) scale(1,1)"><rect fill="#C0C0C0" stroke="none" x="631" y="279" width="355" height="130" opacity="0.2"></rect></g><g transform="translate(-38,-14) scale(1,1)"><rect fill="#ffffff" stroke="none" x="624" y="272" width="355" height="130"></rect></g><g transform="translate(-38,-14) scale(1,1)"><path fill="none" stroke="#000000" d="M 624 272 L 979 272 L 979 402 L 624 402 L 624 272 Z Z" stroke-miterlimit="10"></path></g><g transform="translate(-38,-14) scale(1,1)"><path fill="none" stroke="#000000" d="M 624 297 L 979 297" stroke-miterlimit="10"></path></g><g transform="translate(-38,-14) scale(1,1)"><path fill="none" stroke="#000000" d="M 624 365 L 979 365" stroke-miterlimit="10"></path></g><g transform="translate(-38,-14) scale(1,1)"><g><path fill="none" stroke="none"></path><text fill="#000000" stroke="none" font-family="Arial" font-size="13px" font-style="normal" font-weight="bold" text-decoration="none" x="769" y="291.5">Connection</text></g></g><g transform="translate(-38,-14) scale(1,1)"><g><path fill="none" stroke="none"></path><text fill="#000000" stroke="none" font-family="Arial" font-size="13px" font-style="normal" font-weight="normal" text-decoration="none" x="629" y="314.5">-client: Socket</text></g></g><g transform="translate(-38,-14) scale(1,1)"><g><path fill="none" stroke="none"></path><text fill="#000000" stroke="none" font-family="Arial" font-size="13px" font-style="normal" font-weight="normal" text-decoration="none" x="629" y="329.5">-clientNumber: int</text></g></g><g transform="translate(-38,-14) scale(1,1)"><g><path fill="none" stroke="none"></path><text fill="#000000" stroke="none" font-family="Arial" font-size="13px" font-style="normal" font-weight="normal" text-decoration="none" x="629" y="344.5">-in: BufferedReader</text></g></g><g transform="translate(-38,-14) scale(1,1)"><g><path fill="none" stroke="none"></path><text fill="#000000" stroke="none" font-family="Arial" font-size="13px" font-style="normal" font-weight="normal" text-decoration="none" x="629" y="359.5">-out: PrintWriter</text></g></g><g transform="translate(-38,-14) scale(1,1)"><g><path fill="none" stroke="none"></path><text fill="#000000" stroke="none" font-family="Arial" font-size="13px" font-style="normal" font-weight="normal" text-decoration="none" x="629" y="382.5">«constructor»~Connection(client: Socket, clientNumber: int)</text></g></g><g transform="translate(-38,-14) scale(1,1)"><g><path fill="none" stroke="none"></path><text fill="#000000" stroke="none" font-family="Arial" font-size="13px" font-style="normal" font-weight="normal" text-decoration="none" x="629" y="397.5">+run(): void</text></g></g><g transform="translate(-38,-14) scale(1,1)"><rect fill="#C0C0C0" stroke="none" x="559" y="111" width="156" height="85" opacity="0.2"></rect></g><g transform="translate(-38,-14) scale(1,1)"><rect fill="#ffffff" stroke="none" x="552" y="104" width="156" height="85"></rect></g><g transform="translate(-38,-14) scale(1,1)"><path fill="none" stroke="#000000" d="M 552 104 L 708 104 L 708 189 L 552 189 L 552 104 Z Z" stroke-miterlimit="10"></path></g><g transform="translate(-38,-14) scale(1,1)"><path fill="none" stroke="#000000" d="M 552 129 L 708 129" stroke-miterlimit="10"></path></g><g transform="translate(-38,-14) scale(1,1)"><path fill="none" stroke="#000000" d="M 552 167 L 708 167" stroke-miterlimit="10"></path></g><g transform="translate(-38,-14) scale(1,1)"><g><path fill="none" stroke="none"></path><text fill="#000000" stroke="none" font-family="Arial" font-size="13px" font-style="normal" font-weight="bold" text-decoration="none" x="612" y="123.5">Server</text></g></g><g transform="translate(-38,-14) scale(1,1)"><g><path fill="none" stroke="none"></path><text fill="#000000" stroke="none" font-family="Arial" font-size="13px" font-style="normal" font-weight="normal" text-decoration="none" x="557" y="146.5">-PORT: int = 1723</text></g></g><g transform="translate(-38,-14) scale(1,1)"><g><path fill="none" stroke="none"></path><text fill="#000000" stroke="none" font-family="Arial" font-size="13px" font-style="normal" font-weight="normal" text-decoration="none" x="557" y="161.5">-MAX_CLIENTS: int = 10</text></g></g><g transform="translate(-38,-14) scale(1,1)"><g><path fill="none" stroke="none"></path><text fill="#000000" stroke="none" font-family="Arial" font-size="13px" font-style="normal" font-weight="normal" text-decoration="none" x="557" y="184.5">+main(args: String): void</text></g></g><g transform="translate(-38,-14) scale(1,1)"><rect fill="#C0C0C0" stroke="none" x="759" y="71" width="225" height="160" opacity="0.2"></rect></g><g transform="translate(-38,-14) scale(1,1)"><rect fill="#ffffff" stroke="none" x="752" y="64" width="225" height="160"></rect></g><g transform="translate(-38,-14) scale(1,1)"><path fill="none" stroke="#000000" d="M 752 64 L 977 64 L 977 224 L 752 224 L 752 64 Z Z" stroke-miterlimit="10"></path></g><g transform="translate(-38,-14) scale(1,1)"><path fill="none" stroke="#000000" d="M 752 89 L 977 89" stroke-miterlimit="10"></path></g><g transform="translate(-38,-14) scale(1,1)"><path fill="none" stroke="#000000" d="M 752 172 L 977 172" stroke-miterlimit="10"></path></g><g transform="translate(-38,-14) scale(1,1)"><g><path fill="none" stroke="none"></path><text fill="#000000" stroke="none" font-family="Arial" font-size="13px" font-style="normal" font-weight="bold" text-decoration="none" x="848" y="83.5">Client</text></g></g><g transform="translate(-38,-14) scale(1,1)"><g><path fill="none" stroke="none"></path><text fill="#000000" stroke="none" font-family="Arial" font-size="13px" font-style="normal" font-weight="normal" text-decoration="none" x="757" y="106.5">-socket: Socket</text></g></g><g transform="translate(-38,-14) scale(1,1)"><g><path fill="none" stroke="none"></path><text fill="#000000" stroke="none" font-family="Arial" font-size="13px" font-style="normal" font-weight="normal" text-decoration="none" x="757" y="121.5">-in: BufferedReader</text></g></g><g transform="translate(-38,-14) scale(1,1)"><g><path fill="none" stroke="none"></path><text fill="#000000" stroke="none" font-family="Arial" font-size="13px" font-style="normal" font-weight="normal" text-decoration="none" x="757" y="136.5">-out: PrintWriter</text></g></g><g transform="translate(-38,-14) scale(1,1)"><g><path fill="none" stroke="none"></path><text fill="#000000" stroke="none" font-family="Arial" font-size="13px" font-style="normal" font-weight="normal" text-decoration="none" x="757" y="151.5">-ADDRESS: String = "127.0.0.1"</text></g></g><g transform="translate(-38,-14) scale(1,1)"><g><path fill="none" stroke="none"></path><text fill="#000000" stroke="none" font-family="Arial" font-size="13px" font-style="normal" font-weight="normal" text-decoration="none" x="757" y="166.5">-PORT: int = 1723</text></g></g><g transform="translate(-38,-14) scale(1,1)"><g><path fill="none" stroke="none"></path><text fill="#000000" stroke="none" font-family="Arial" font-size="13px" font-style="normal" font-weight="normal" text-decoration="none" x="757" y="189.5">«constructor»~Client(socket: Socket)</text></g></g><g transform="translate(-38,-14) scale(1,1)"><g><path fill="none" stroke="none"></path><text fill="#000000" stroke="none" font-family="Arial" font-size="13px" font-style="normal" font-weight="normal" text-decoration="none" x="757" y="204.5">-startServerCommunication(): void</text></g></g><g transform="translate(-38,-14) scale(1,1)"><g><path fill="none" stroke="none"></path><text fill="#000000" stroke="none" font-family="Arial" font-size="13px" font-style="normal" font-weight="normal" text-decoration="none" x="757" y="219.5">+main(args: String): void</text></g></g><g transform="translate(-38,-14) scale(1,1)"><rect fill="#C0C0C0" stroke="none" x="63" y="79" width="470" height="265" opacity="0.2"></rect></g><g transform="translate(-38,-14) scale(1,1)"><rect fill="#ffffff" stroke="none" x="56" y="72" width="470" height="265"></rect></g><g transform="translate(-38,-14) scale(1,1)"><path fill="none" stroke="#000000" d="M 56 72 L 526 72 L 526 337 L 56 337 L 56 72 Z Z" stroke-miterlimit="10"></path></g><g transform="translate(-38,-14) scale(1,1)"><path fill="none" stroke="#000000" d="M 56 97 L 526 97" stroke-miterlimit="10"></path></g><g transform="translate(-38,-14) scale(1,1)"><path fill="none" stroke="#000000" d="M 56 285 L 526 285" stroke-miterlimit="10"></path></g><g transform="translate(-38,-14) scale(1,1)"><g><path fill="none" stroke="none"></path><text fill="#000000" stroke="none" font-family="Arial" font-size="13px" font-style="normal" font-weight="bold" text-decoration="none" x="262" y="91.5">Reception</text></g></g><g transform="translate(-38,-14) scale(1,1)"><g><path fill="none" stroke="none"></path><text fill="#000000" stroke="none" font-family="Arial" font-size="13px" font-style="normal" font-weight="normal" text-decoration="none" x="61" y="114.5">-pizzaList: String</text></g></g><g transform="translate(-38,-14) scale(1,1)"><g><path fill="none" stroke="none"></path><text fill="#000000" stroke="none" font-family="Arial" font-size="13px" font-style="normal" font-weight="normal" text-decoration="none" x="61" y="129.5">-drinksList: String</text></g></g><g transform="translate(-38,-14) scale(1,1)"><g><path fill="none" stroke="none"></path><text fill="#000000" stroke="none" font-family="Arial" font-size="13px" font-style="normal" font-weight="normal" text-decoration="none" x="61" y="144.5">-hotelOptionsList: String</text></g></g><g transform="translate(-38,-14) scale(1,1)"><g><path fill="none" stroke="none"></path><text fill="#000000" stroke="none" font-family="Arial" font-size="13px" font-style="normal" font-weight="normal" text-decoration="none" x="61" y="159.5">-appetizers: String</text></g></g><g transform="translate(-38,-14) scale(1,1)"><g><path fill="none" stroke="none"></path><text fill="#000000" stroke="none" font-family="Arial" font-size="13px" font-style="normal" font-weight="normal" text-decoration="none" x="61" y="174.5">-firstCourses: String</text></g></g><g transform="translate(-38,-14) scale(1,1)"><g><path fill="none" stroke="none"></path><text fill="#000000" stroke="none" font-family="Arial" font-size="13px" font-style="normal" font-weight="normal" text-decoration="none" x="61" y="189.5">-secondCourses: String</text></g></g><g transform="translate(-38,-14) scale(1,1)"><g><path fill="none" stroke="none"></path><text fill="#000000" stroke="none" font-family="Arial" font-size="13px" font-style="normal" font-weight="normal" text-decoration="none" x="61" y="204.5">-desserts: String</text></g></g><g transform="translate(-38,-14) scale(1,1)"><g><path fill="none" stroke="none"></path><text fill="#000000" stroke="none" font-family="Arial" font-size="13px" font-style="normal" font-weight="normal" text-decoration="none" x="61" y="219.5">-apartmentsList: String</text></g></g><g transform="translate(-38,-14) scale(1,1)"><g><path fill="none" stroke="none"></path><text fill="#000000" stroke="none" font-family="Arial" font-size="13px" font-style="normal" font-weight="normal" text-decoration="none" x="61" y="234.5">-in: BufferedReader</text></g></g><g transform="translate(-38,-14) scale(1,1)"><g><path fill="none" stroke="none"></path><text fill="#000000" stroke="none" font-family="Arial" font-size="13px" font-style="normal" font-weight="normal" text-decoration="none" x="61" y="249.5">-out: PrintWriter</text></g></g><g transform="translate(-38,-14) scale(1,1)"><g><path fill="none" stroke="none"></path><text fill="#000000" stroke="none" font-family="Arial" font-size="13px" font-style="normal" font-weight="normal" text-decoration="none" x="61" y="264.5">-clientNumber: int</text></g></g><g transform="translate(-38,-14) scale(1,1)"><g><path fill="none" stroke="none"></path><text fill="#000000" stroke="none" font-family="Arial" font-size="13px" font-style="normal" font-weight="normal" text-decoration="none" x="61" y="279.5">-operations: LinkedhashMap</text></g></g><g transform="translate(-38,-14) scale(1,1)"><g><path fill="none" stroke="none"></path><text fill="#000000" stroke="none" font-family="Arial" font-size="13px" font-style="normal" font-weight="normal" text-decoration="none" x="61" y="302.5">«constructor»~Reception(clientNumber: int, in: BufferedReader, out: PrintWriter)</text></g></g><g transform="translate(-38,-14) scale(1,1)"><g><path fill="none" stroke="none"></path><text fill="#000000" stroke="none" font-family="Arial" font-size="13px" font-style="normal" font-weight="normal" text-decoration="none" x="61" y="317.5">-addDrinks(r: LinkedList&lt;String&gt;): double</text></g></g><g transform="translate(-38,-14) scale(1,1)"><g><path fill="none" stroke="none"></path><text fill="#000000" stroke="none" font-family="Arial" font-size="13px" font-style="normal" font-weight="normal" text-decoration="none" x="61" y="332.5">+startDialog(): LinkedList&lt;String&gt;</text></g></g><g transform="translate(-38,-14) scale(1,1)"><path fill="#C0C0C0" stroke="none" d="M 615.5 610.5 C 615.5 604.1487248 620.6487248 599 627 599 C 633.3512752 599 638.5 604.1487248 638.5 610.5 C 638.5 616.8512752 633.3512752 622 627 622 C 620.6487248 622 615.5 616.8512752 615.5 610.5 Z" opacity="0.2"></path></g><g transform="translate(-38,-14) scale(1,1)"><path fill="#ffffff" stroke="none" d="M 608.5 603.5 C 608.5 597.1487248 613.6487248 592 620 592 C 626.3512752 592 631.5 597.1487248 631.5 603.5 C 631.5 609.8512752 626.3512752 615 620 615 C 613.6487248 615 608.5 609.8512752 608.5 603.5 Z"></path></g><g transform="translate(-38,-14) scale(1,1)"><path fill="none" stroke="#000000" d="M 608.5 603.5 C 608.5 597.1487248 613.6487248 592 620 592 C 626.3512752 592 631.5 597.1487248 631.5 603.5 C 631.5 609.8512752 626.3512752 615 620 615 C 613.6487248 615 608.5 609.8512752 608.5 603.5 Z" stroke-miterlimit="10"></path></g><g transform="translate(-38,-14) scale(1,1)"><g><path fill="none" stroke="none"></path><text fill="#000000" stroke="none" font-family="Arial" font-size="13px" font-style="normal" font-weight="bold" text-decoration="none" x="593" y="634.5">Runnable</text></g></g><g transform="translate(-38,-14) scale(1,1)"><path fill="none" stroke="#000000" d="M 758 403 L 631.5 594.375" stroke-miterlimit="10"></path></g><g transform="translate(-38,-14) scale(1,1)"><path fill="none" stroke="#000000" d="M 623 291 L 527 266" stroke-miterlimit="10"></path></g><g transform="translate(-38,-14) scale(1,1)"><path fill="none" stroke="#000000" d="M 537.8955137129815 264.4874587839557 L 527 266 L 535.7738197816493 272.6347634802711" stroke-miterlimit="10"></path></g><g transform="translate(-38,-14) scale(1,1)"><g><path fill="none" stroke="none"></path><text fill="#000000" stroke="none" font-family="Arial" font-size="13px" font-style="normal" font-weight="normal" text-decoration="none" x="540.5" y="265.5">0..*</text></g></g><g transform="translate(-38,-14) scale(1,1)"><path fill="none" stroke="#000000" d="M 669 190 L 742 271" stroke-miterlimit="10"></path></g><g transform="translate(-38,-14) scale(1,1)"><g><path fill="none" stroke="none"></path><text fill="#000000" stroke="none" font-family="Arial" font-size="13px" font-style="normal" font-weight="normal" text-decoration="none" x="663.5" y="220.5">0..*</text></g></g><g transform="translate(-38,-14) scale(1,1)"><path fill="none" stroke="#000000" d="M 669 190 L 742 271" stroke-miterlimit="10"></path></g><g transform="translate(-38,-14) scale(1,1)"><path fill="none" stroke="#000000" d="M 732.0693917319717 266.2689304140642 L 742 271 L 738.3233709388506 260.6326281658893" stroke-miterlimit="10"></path></g><g transform="translate(-38,-14) scale(1,1)"><g><path fill="none" stroke="none"></path><text fill="#000000" stroke="none" font-family="Arial" font-size="13px" font-style="normal" font-weight="normal" text-decoration="none" x="663.5" y="220.5">0..*</text></g></g></g></svg>